<svg width="62" height="14" viewBox="0 0 62 14" fill="none" xmlns="http://www.w3.org/2000/svg">
<g clip-path="url(#clip0_7612_9257)">
<path d="M10.5698 0.734584C4.70941 0.761018 -0.0172773 3.27025 4.74738e-05 6.3587C0.00739074 7.66693 0.871741 8.86415 2.33054 9.82269C1.62479 9.09693 1.2236 8.17342 1.19608 7.21118C1.17809 4.01559 5.80892 1.39963 11.5263 1.37367C15.2188 1.35701 18.4648 2.41478 20.3083 4.03647C18.6534 2.07075 14.9056 0.715006 10.5698 0.734584Z" fill="white"/>
<path d="M9.67783 7.89312C10.0446 7.90725 10.4073 7.82045 10.7174 7.64438C10.8635 7.56085 10.9823 7.44417 11.0619 7.3062C11.1414 7.16822 11.1788 7.01385 11.1703 6.85875C11.1642 6.21873 10.9161 5.59946 10.4664 5.10209C10.0572 4.62749 9.52921 4.24564 8.92507 3.98731C8.32093 3.72899 7.65751 3.60141 6.98826 3.61486C6.41808 3.59999 5.85059 3.6905 5.32117 3.88074C4.79174 4.07098 4.31173 4.35688 3.91104 4.7206C3.52301 5.06502 3.21726 5.47657 3.0124 5.9302C2.80754 6.38384 2.70785 6.87008 2.71941 7.35933C2.71198 7.85052 2.82205 8.33745 3.04221 8.78735C3.26237 9.23726 3.58751 9.63971 3.99577 9.96764C4.85458 10.6751 5.99011 11.0508 7.15605 11.0131C7.81344 11.0122 8.46692 10.9226 9.09454 10.7474C9.71514 10.6108 10.2746 10.3081 10.6984 9.87959C10.8704 9.70977 10.9697 9.49089 10.9788 9.26174C10.9759 8.72225 10.6379 8.45402 9.96487 8.45704C9.57181 8.52747 9.1907 8.64363 8.83124 8.80256C8.34114 9.00699 7.81168 9.12494 7.27179 9.14998C6.8094 9.16539 6.35257 9.05556 5.96091 8.83483C5.78612 8.73344 5.63942 8.59771 5.53195 8.43794C5.42447 8.27816 5.35905 8.09855 5.34064 7.91273L9.67783 7.89312ZM5.87995 5.65605C6.19935 5.42282 6.60169 5.3002 7.01359 5.31057C7.42376 5.29898 7.82483 5.42031 8.14322 5.65227C8.29334 5.75929 8.4169 5.89318 8.50601 6.04539C8.59512 6.1976 8.64783 6.36478 8.66076 6.53627L5.30133 6.55144C5.37126 6.20149 5.57603 5.88462 5.87995 5.65605Z" fill="white"/>
<path d="M12.6067 9.90713C13.014 10.2644 13.4995 10.5423 14.0325 10.7234C14.5655 10.9044 15.1345 10.9848 15.7039 10.9593C16.3623 10.9746 17.0171 10.8667 17.6263 10.6424C18.3395 10.3482 18.695 9.99123 18.6928 9.57137C18.6966 9.33511 18.5961 9.10705 18.4132 8.93682C18.3209 8.85016 18.209 8.78214 18.085 8.7373C17.961 8.69247 17.8277 8.67185 17.6941 8.67682C17.4337 8.68967 17.1778 8.74299 16.9378 8.83439C16.6203 8.94061 16.284 8.99435 15.9451 8.99299C15.6809 9.00788 15.4163 8.97009 15.1703 8.88236C14.9244 8.79462 14.7032 8.65911 14.5227 8.4856C14.2109 8.13783 14.0514 7.70007 14.0742 7.25446C14.054 6.81616 14.2019 6.38487 14.4932 6.03226C14.6516 5.85251 14.8556 5.70923 15.0882 5.61434C15.3208 5.51945 15.5754 5.47569 15.8307 5.48669C16.1778 5.48353 16.5227 5.53637 16.8489 5.64269C17.0975 5.73454 17.3619 5.78764 17.6305 5.79972C17.7694 5.80324 17.9077 5.78204 18.0374 5.73736C18.1671 5.69268 18.2856 5.62539 18.3861 5.5394C18.4822 5.45885 18.5583 5.36103 18.6093 5.25234C18.6604 5.14364 18.6852 5.02652 18.6822 4.90863C18.6795 4.42918 18.3305 4.07107 17.6352 3.83432C17.0514 3.65578 16.4368 3.57158 15.8201 3.58562C15.239 3.56339 14.6587 3.6446 14.1128 3.82455C13.567 4.0045 13.0664 4.27963 12.64 4.63401C12.245 4.9802 11.9356 5.39682 11.7317 5.8569C11.5278 6.31699 11.434 6.8103 11.4564 7.30492C11.4414 7.78585 11.5356 8.26449 11.7334 8.7118C11.9311 9.15912 12.2282 9.56578 12.6067 9.90713Z" fill="white"/>
<path d="M19.9561 9.88766C20.3715 10.2488 20.8644 10.5305 21.4049 10.7158C21.9455 10.901 22.5225 10.9859 23.1008 10.9654C23.6784 10.9827 24.2538 10.8947 24.7923 10.7068C25.3308 10.5189 25.821 10.2349 26.2333 9.87218C26.6153 9.52553 26.9144 9.11281 27.1125 8.65918C27.3106 8.20555 27.4035 7.72053 27.3854 7.23369C27.3976 6.74166 27.2977 6.25258 27.0917 5.79632C26.8858 5.34007 26.5781 4.92622 26.1876 4.58007C25.774 4.22257 25.283 3.94478 24.7449 3.76384C24.2067 3.5829 23.633 3.50264 23.0589 3.52802C22.4856 3.511 21.9144 3.59854 21.38 3.78533C20.8455 3.97212 20.3591 4.25426 19.9501 4.61462C19.5584 4.96064 19.2505 5.3752 19.0455 5.8325C18.8405 6.28979 18.7428 6.78001 18.7585 7.27261C18.7473 7.75877 18.8478 8.24181 19.0538 8.69168C19.2598 9.14156 19.567 9.54865 19.9561 9.88766H19.9561ZM21.7799 6.05148C21.9269 5.87035 22.1216 5.7246 22.3467 5.62721C22.5718 5.52983 22.8203 5.48382 23.0701 5.4933C23.3187 5.48319 23.5662 5.52909 23.79 5.62681C24.0137 5.72454 24.2065 5.87097 24.3507 6.0527C24.632 6.39364 24.7786 6.80875 24.7674 7.23259C24.7879 7.65864 24.6517 8.07894 24.3798 8.42898C24.2353 8.61324 24.0414 8.76207 23.816 8.86186C23.5907 8.96165 23.341 9.00921 23.0898 9.00019C22.8411 9.0104 22.5935 8.96454 22.3698 8.86681C22.1461 8.76908 21.9533 8.6226 21.8091 8.4408C21.5262 8.09569 21.3796 7.67605 21.3923 7.24803C21.3747 6.82229 21.5106 6.40278 21.7799 6.05163V6.05148Z" fill="white"/>
<path d="M30.9439 3.31168L32.0795 3.30656C33.2781 3.30115 33.8797 3.70521 33.8843 4.51875C33.8889 5.34947 33.292 5.7675 32.0933 5.77286L30.9578 5.77798L30.9439 3.31168ZM30.9777 9.31662L30.9689 7.71758L32.7353 7.7097C33.7946 7.75862 34.8371 7.45674 35.6641 6.86155C36.0254 6.56447 36.3081 6.19878 36.4914 5.79122C36.6746 5.38367 36.7539 4.94456 36.7234 4.50603C36.7464 4.05432 36.6501 3.60411 36.4422 3.19207C36.2343 2.78003 35.9207 2.41781 35.5269 2.13491C34.6493 1.56318 33.5775 1.282 32.4943 1.33935L30.1286 1.35002C29.6256 1.30482 29.1215 1.42571 28.711 1.68999C28.5624 1.85173 28.4515 2.03853 28.3849 2.23934C28.3183 2.44015 28.2974 2.65089 28.3233 2.85909L28.3596 9.32418C28.3653 10.3334 28.8045 10.836 29.6772 10.832C30.5499 10.8281 30.9834 10.3229 30.9778 9.31662H30.9777Z" fill="white"/>
<path d="M39.9187 6.00887C40.0619 5.83749 40.2491 5.6996 40.4645 5.60694C40.6798 5.51427 40.917 5.46957 41.1558 5.47662C41.3948 5.46543 41.6331 5.50711 41.8499 5.59798C42.0666 5.68885 42.2551 5.82613 42.3986 5.99768C42.6606 6.33112 42.795 6.7316 42.7818 7.1392C42.7982 7.5505 42.6686 7.95586 42.4115 8.29695C42.2723 8.47293 42.0863 8.61497 41.8703 8.71019C41.6543 8.80541 41.4152 8.85079 41.1747 8.8422C40.9322 8.85207 40.6906 8.80857 40.4712 8.71552C40.2517 8.62246 40.0611 8.48267 39.9158 8.30837C39.6454 7.97313 39.5053 7.56762 39.5171 7.15413C39.5026 6.74274 39.6441 6.33909 39.9187 6.00907V6.00887ZM44.1268 10.7684C44.9679 10.7646 45.3856 10.2566 45.38 9.24437L45.3568 5.06208C45.3512 4.05856 44.9278 3.55862 44.0866 3.56227C43.8365 3.56182 43.591 3.62326 43.3774 3.73982C43.1637 3.85639 42.9901 4.02354 42.8757 4.22287C42.612 3.97563 42.2921 3.782 41.9377 3.65506C41.5833 3.52812 41.2025 3.47084 40.8213 3.48707C40.2744 3.47772 39.7321 3.57781 39.2339 3.78007C38.7358 3.98232 38.2942 4.28162 37.9416 4.65616C37.2425 5.35037 36.8642 6.25677 36.8835 7.19159C36.8725 8.11151 37.2428 9.00239 37.9227 9.69177C38.2708 10.0615 38.7073 10.3563 39.1999 10.5542C39.6925 10.7521 40.2285 10.8481 40.7681 10.835C41.1679 10.8507 41.5667 10.7878 41.9364 10.6508C42.3062 10.5137 42.638 10.3059 42.9086 10.0418C43.0025 10.2612 43.1702 10.4491 43.3885 10.5793C43.6068 10.7095 43.865 10.7756 44.1272 10.7685L44.1268 10.7684Z" fill="white"/>
<path d="M51.2671 4.35078L49.7244 7.67189L48.2557 4.54421C48.1568 4.28975 48.0115 4.05169 47.8259 3.83965C47.7118 3.73937 47.5756 3.66162 47.4259 3.61141C47.2762 3.5612 47.1164 3.53964 46.9568 3.54813C46.6281 3.53998 46.3088 3.64744 46.0674 3.84752C45.9536 3.94002 45.8633 4.0534 45.8028 4.17995C45.7423 4.3065 45.7129 4.44325 45.7166 4.58088C45.7163 4.78064 45.7659 4.97792 45.8617 5.15828L48.459 10.0392L47.4192 11.9048C47.2933 12.1229 47.2227 12.3632 47.2125 12.6085C47.2063 12.7455 47.2346 12.8819 47.2954 13.0078C47.3562 13.1336 47.4479 13.2455 47.5636 13.3353C47.8225 13.521 48.1486 13.6149 48.4798 13.5992C48.9318 13.5972 49.3035 13.3172 49.5949 12.7592L53.4482 5.2271C53.5721 5.00272 53.6407 4.75708 53.6492 4.50686C53.6456 3.84751 53.2231 3.51971 52.3819 3.52347C51.8983 3.52562 51.5265 3.80138 51.2668 4.35074L51.2671 4.35078Z" fill="white"/>
<path d="M59.939 8.66744L57.4208 8.67882L60.7861 5.12009C61.0677 4.8758 61.2484 4.55306 61.2985 4.20474C61.3117 4.09006 61.2791 3.9749 61.2063 3.87982C61.1335 3.78474 61.0254 3.71593 60.9012 3.68568C60.5035 3.60107 60.0946 3.5661 59.6862 3.58176L55.6012 3.6002C54.5182 3.60508 53.9785 3.9201 53.982 4.54526C53.9856 5.17905 54.5236 5.49347 55.5961 5.48851L57.7884 5.47862L54.3079 9.18098C54.0797 9.39781 53.9468 9.68131 53.9338 9.9791C53.9362 10.4074 54.3843 10.6195 55.2781 10.6153L59.9307 10.5943C61.0032 10.5895 61.5376 10.2702 61.534 9.63653C61.5304 8.98582 60.9987 8.66279 59.939 8.66744Z" fill="white"/>
</g>
<defs>
<clipPath id="clip0_7612_9257">
<rect width="62" height="13" fill="white" transform="translate(0 0.667969)"/>
</clipPath>
</defs>
</svg>
