<svg width="27" height="16" viewBox="0 0 27 16" fill="none" xmlns="http://www.w3.org/2000/svg">
<path d="M12.239 1.9785C11.1124 1.20749 9.79663 0.758638 8.43366 0.680322C7.07069 0.602005 5.7122 0.897198 4.50464 1.53408C3.29708 2.17095 2.28626 3.12536 1.58116 4.29439C0.876056 5.46343 0.503418 6.80275 0.503418 8.16797C0.503418 9.53319 0.876056 10.8725 1.58116 12.0415C2.28626 13.2106 3.29708 14.165 4.50464 14.8019C5.7122 15.4387 7.07069 15.7339 8.43366 15.6556C9.79663 15.5773 11.1124 15.1284 12.239 14.3574C10.7326 12.6475 9.90148 10.4468 9.90148 8.16797C9.90148 5.88909 10.7326 3.68844 12.239 1.9785Z" fill="white"/>
<path d="M19.2654 15.668C23.4075 15.668 26.7654 12.3101 26.7654 8.16797C26.7654 4.02583 23.4075 0.667969 19.2654 0.667969C15.1232 0.667969 11.7654 4.02583 11.7654 8.16797C11.7654 12.3101 15.1232 15.668 19.2654 15.668Z" fill="white"/>
</svg>
