<svg width="62" height="13" viewBox="0 0 62 13" fill="none" xmlns="http://www.w3.org/2000/svg">
<path d="M60.8672 1.08012C60.0771 0.473867 58.8813 0.168115 57.3139 0.168115H53.2091L51.683 9.44715H46.3055L46.6512 7.34193H49.8905L50.2743 4.97744L47.0369 4.98266L47.3835 2.88684H50.7201L51.1641 0.168656H44.388L42.9393 8.9704H40.4527L41.9112 0.168193H38.3691L36.9204 8.96994H34.4981L35.958 0.168193H32.4177L30.8898 9.44723H25.4737L25.8161 7.34201H29.0684L29.4527 4.99095L26.2035 4.9873L26.5482 2.88731H29.9223L30.3634 0.167969H9.24814L8.0463 7.52093L5.65288 0.167969H1.97791L0 12.168H3.50963L4.70682 4.61224L7.02935 12.168H19.6076L21.1369 2.88615H23.1041L21.5748 12.168H54.6706L55.6302 6.30894L57.1823 12.168H60.6938L59.0853 7.38042L59.4533 7.29173C60.2638 7.09712 60.896 6.6792 61.3362 6.05261C61.7759 5.42027 62 4.60843 62 3.63326C62 2.49795 61.6292 1.66266 60.8662 1.07942L60.8672 1.08012ZM16.5535 9.44715H11.1811L11.5282 7.34193H14.8979L15.2799 4.97073H11.9426L12.264 2.88743H17.6285L16.5524 9.44713L16.5535 9.44715ZM57.9738 5.40518C57.6207 5.6817 57.1088 5.8163 56.4086 5.8163H55.7145L56.247 2.59605H56.7575C57.3389 2.59605 57.7628 2.7004 58.0553 2.91326C58.2836 3.08022 58.5552 3.41049 58.5552 4.035C58.5543 4.79048 58.2384 5.19639 57.9729 5.40509L57.9738 5.40518Z" fill="white"/>
</svg>
