<svg width="22" height="22" viewBox="0 0 22 22" fill="none" xmlns="http://www.w3.org/2000/svg">
<path d="M3.11719 8.77851V6.42157H7.22331V17.2427H4.58472V8.77851H3.11719Z" fill="white"/>
<path d="M10.7361 11.4319C9.80719 10.9378 9.34272 10.162 9.34272 9.10463C9.34272 8.57098 9.48108 8.08675 9.75778 7.65193C10.0345 7.20722 10.4545 6.8564 11.0178 6.59945C11.5811 6.33263 12.2728 6.19922 13.0931 6.19922C13.9133 6.19922 14.6001 6.33263 15.1535 6.59945C15.7168 6.8564 16.1368 7.20722 16.4135 7.65193C16.6903 8.08675 16.8286 8.57098 16.8286 9.10463C16.8286 9.63828 16.7001 10.1027 16.4432 10.498C16.1961 10.8933 15.8601 11.2046 15.4352 11.4319C15.9688 11.6889 16.379 12.0446 16.6655 12.4992C16.9521 12.9439 17.0954 13.4677 17.0954 14.0705C17.0954 14.7722 16.9175 15.3799 16.5618 15.8938C16.206 16.3978 15.7218 16.7832 15.1091 17.05C14.5063 17.3169 13.8343 17.4503 13.0931 17.4503C12.3519 17.4503 11.675 17.3169 11.0623 17.05C10.4594 16.7832 9.98013 16.3978 9.62437 15.8938C9.2686 15.3799 9.09072 14.7722 9.09072 14.0705C9.09072 13.4578 9.23402 12.9291 9.52061 12.4844C9.80719 12.0298 10.2124 11.679 10.7361 11.4319ZM14.3679 9.49004C14.3679 9.08487 14.2493 8.77357 14.0121 8.55616C13.7848 8.32887 13.4785 8.21522 13.0931 8.21522C12.7077 8.21522 12.3964 8.32887 12.1592 8.55616C11.9319 8.78345 11.8183 9.09969 11.8183 9.50487C11.8183 9.89028 11.9368 10.1966 12.174 10.4239C12.4112 10.6413 12.7175 10.75 13.0931 10.75C13.4686 10.75 13.775 10.6364 14.0121 10.4091C14.2493 10.1818 14.3679 9.87545 14.3679 9.49004ZM13.0931 12.5289C12.6286 12.5289 12.2531 12.6573 11.9665 12.9143C11.6799 13.1613 11.5366 13.5072 11.5366 13.9519C11.5366 14.367 11.675 14.7079 11.9517 14.9747C12.2383 15.2416 12.6187 15.375 13.0931 15.375C13.5674 15.375 13.938 15.2416 14.2048 14.9747C14.4815 14.7079 14.6199 14.367 14.6199 13.9519C14.6199 13.5171 14.4766 13.1712 14.19 12.9143C13.9133 12.6573 13.5477 12.5289 13.0931 12.5289Z" fill="white"/>
<path d="M19.1759 6.19807V18.0216C19.1759 19.6785 17.8328 21.0216 16.1759 21.0216H3.64648C1.98963 21.0216 0.646484 19.6785 0.646484 18.0216V5.49219C0.646484 3.83533 1.98963 2.49219 3.64648 2.49219L15.47 2.49219" stroke="white"/>
<path d="M21.6463 3.12378H19.8345V4.96461H18.5168V3.12378H16.7051V1.87396H18.5168V0.0234375H19.8345V1.87396H21.6463V3.12378Z" fill="white"/>
</svg>
