<svg width="15" height="15" viewBox="0 0 15 15" fill="none" xmlns="http://www.w3.org/2000/svg">
<path fill-rule="evenodd" clip-rule="evenodd" d="M11.5909 1.02273H3.40909C2.09114 1.02273 1.02273 2.09114 1.02273 3.40909V11.5909C1.02273 12.9089 2.09114 13.9773 3.40909 13.9773H11.5909C12.9089 13.9773 13.9773 12.9089 13.9773 11.5909V3.40909C13.9773 2.09114 12.9089 1.02273 11.5909 1.02273ZM3.40909 0C1.5263 0 0 1.5263 0 3.40909V11.5909C0 13.4737 1.5263 15 3.40909 15H11.5909C13.4737 15 15 13.4737 15 11.5909V3.40909C15 1.5263 13.4737 0 11.5909 0H3.40909Z" fill="white"/>
<path d="M8.41662 2.75271C8.03048 2.85419 7.75296 3.0099 7.4346 3.3147C6.98764 3.74811 6.87243 4.14102 6.82516 5.37362L6.79127 6.40968H6.2291H5.66016V7.29004V8.1704H6.23588H6.81161L6.82516 11.0961L6.84549 14.0286L7.94933 14.0489L9.04656 14.0625V11.1164V8.1704H9.92014H10.7937L10.8344 7.98081C10.8547 7.87915 10.8886 7.48641 10.9157 7.10045L10.9564 6.40968H10.0015H9.04656V5.77314C9.04656 5.03493 9.12111 4.77079 9.36492 4.64219C9.54096 4.54731 10.0489 4.52037 10.6043 4.58119L10.9091 4.61508L11.0377 3.78877C11.1123 3.32826 11.1529 2.93552 11.1258 2.91519C10.9765 2.75949 8.87035 2.63749 8.41662 2.75271Z" fill="white"/>
</svg>
