<svg width="62" height="17" viewBox="0 0 62 17" fill="none" xmlns="http://www.w3.org/2000/svg">
<path d="M15.3166 16.3387L15.2607 0.00286028L16.087 0L16.1429 16.3358L15.3166 16.3387ZM23.9452 2.09703L23.9449 2.01519L27.2504 2.0038L27.2784 10.1716C27.2697 11.2594 26.8325 12.2998 26.0615 13.0673C25.2906 13.8348 24.2481 14.2673 23.1603 14.271C22.0725 14.2747 21.0271 13.8494 20.251 13.0872C19.4748 12.325 19.0304 11.2876 19.0143 10.1999L22.32 10.1885C22.3207 10.4077 22.4085 10.6175 22.564 10.772C22.7195 10.9264 22.93 11.0127 23.1491 11.012C23.3683 11.0112 23.5781 10.9235 23.7326 10.768C23.887 10.6125 23.9733 10.402 23.9726 10.1829L23.9452 2.09703ZM35.8961 6.35915C36.2728 6.76537 36.5601 7.24613 36.7394 7.77034C36.9361 8.35422 37.0336 8.9669 37.0281 9.58298C37.0286 9.74226 37.0228 9.88718 37.0116 10.0137C37.0097 10.1232 36.9876 10.2314 36.9465 10.3329L36.8559 10.5147L31.1387 10.5343C31.1661 10.6604 31.2084 10.7829 31.2648 10.899C31.4672 11.3211 31.8226 11.6504 32.2588 11.8202C32.4855 11.9083 32.7269 11.9521 32.9701 11.9493C33.3734 11.9773 33.7737 11.8621 34.1005 11.6241L34.2341 11.5097L36.6596 12.1685L36.4025 12.5456C36.1703 12.8844 35.8834 13.1822 35.5534 13.4269C35.2043 13.6842 34.8163 13.8839 34.404 14.0184C33.9432 14.1663 33.4618 14.2398 32.9779 14.2362C32.4004 14.2402 31.8272 14.1377 31.287 13.9337C30.7567 13.7339 30.273 13.4276 29.8658 13.0336C29.4474 12.6226 29.1149 12.1326 28.8877 11.592C28.6344 10.9801 28.5081 10.3232 28.5163 9.66101C28.5062 9.03051 28.6222 8.40436 28.8574 7.81929C29.0733 7.28929 29.39 6.80626 29.79 6.39697C30.1786 6.00381 30.6398 5.68972 31.1479 5.47209C31.6533 5.25357 32.1978 5.13985 32.7484 5.1378C33.3582 5.12705 33.9644 5.23287 34.5345 5.44957C35.0499 5.64847 35.5149 5.95911 35.896 6.35915H35.8961ZM31.2084 8.49204L34.3796 8.48118C34.3611 8.40738 34.3379 8.33484 34.3101 8.26401C34.2434 8.0949 34.1416 7.94189 34.0114 7.8151C33.8661 7.67642 33.6948 7.56796 33.5073 7.49602C33.2723 7.40971 33.0229 7.36897 32.7726 7.37599C32.5436 7.37278 32.3164 7.41689 32.1052 7.50555C31.9189 7.58537 31.7498 7.7003 31.607 7.84407C31.4697 7.98496 31.3573 8.14815 31.2746 8.32667C31.2495 8.38052 31.2273 8.43573 31.2083 8.49204H31.2084ZM51.6815 6.37112C52.091 6.78149 52.4146 7.26931 52.6335 7.8061C52.8645 8.3793 52.9814 8.99206 52.9778 9.61005C52.9852 10.2301 52.8727 10.8458 52.6464 11.4232C52.4328 11.9651 52.1123 12.4585 51.704 12.8739C51.2962 13.2838 50.8119 13.6095 50.2785 13.8327C49.1284 14.2958 47.8446 14.3003 46.6913 13.8454C46.1537 13.6285 45.6656 13.305 45.2563 12.8945C44.8502 12.4804 44.5299 11.9901 44.3139 11.4518C44.0835 10.876 43.9668 10.2611 43.9701 9.64098C43.9621 9.02303 44.0748 8.40947 44.3021 7.83475C44.5158 7.29856 44.8325 6.80942 45.2343 6.39496C45.6407 5.98165 46.1265 5.65485 46.6626 5.43421C47.8127 4.97164 49.0964 4.96743 50.2496 5.42245C50.7844 5.64183 51.2709 5.96416 51.6814 6.37112H51.6815ZM50.2258 10.598C50.3374 10.284 50.3906 9.95215 50.3829 9.61895C50.3888 9.28892 50.3335 8.96066 50.2198 8.65079C50.1248 8.39989 49.9796 8.171 49.7932 7.97809C49.6229 7.80467 49.4172 7.66994 49.1902 7.58305C48.7179 7.40738 48.1979 7.40915 47.7269 7.58802C47.5036 7.6748 47.3024 7.81007 47.1378 7.98407C46.9537 8.18268 46.8089 8.41439 46.7111 8.66694C46.5952 8.97509 46.54 9.30272 46.5485 9.63182C46.5427 9.96412 46.6004 10.2945 46.7184 10.6052C46.8165 10.8595 46.9627 11.0925 47.1491 11.2914C47.3171 11.4667 47.5207 11.6038 47.7462 11.6937C48.2133 11.8779 48.7333 11.8762 49.1992 11.6889C49.427 11.5955 49.6331 11.4561 49.8045 11.2794C49.9904 11.0837 50.1338 10.8518 50.2258 10.598H50.2258ZM61.7804 7.21131C61.915 7.63914 61.9829 8.08516 61.9817 8.53367L62 13.8919L59.4218 13.9007L59.4046 8.86923C59.4156 8.49186 59.3056 8.12086 59.0907 7.81044C58.815 7.56121 58.4543 7.42722 58.0827 7.43609C57.7112 7.44496 57.3572 7.59601 57.0938 7.85811C56.8512 8.18541 56.7277 8.58578 56.7438 8.99286L56.7607 13.9099L54.1825 13.9188L54.153 5.30979L56.6814 5.3011L56.6831 5.77602C56.8578 5.6263 57.052 5.50099 57.2604 5.40354C57.7123 5.19272 58.203 5.07776 58.7015 5.0659C59.2001 5.05405 59.6956 5.14557 60.1571 5.33468C60.553 5.50704 60.9034 5.76928 61.1803 6.10061C61.4488 6.42942 61.6523 6.80632 61.78 7.21121L61.7804 7.21131ZM42.3823 11.699C42.5485 11.6778 42.5963 11.6676 42.607 11.6647L43.0179 11.5609L43.0254 13.7694L42.8183 13.8522C42.4038 14.0046 41.9637 14.0752 41.5224 14.0601C41.1586 14.0795 40.7946 14.0271 40.4512 13.9058C40.1077 13.7846 39.7915 13.5968 39.5207 13.3532C39.2653 13.0932 39.0667 12.7831 38.9374 12.4424C38.8081 12.1017 38.7509 11.7379 38.7695 11.374L38.7569 7.69841L37.7653 7.7018L37.7573 5.36588L38.7486 5.36249L38.7406 2.92827L41.3023 2.91942L41.3107 5.35365L42.98 5.34793L42.988 7.68384L41.3187 7.68957L41.3301 11.0546C41.3107 11.242 41.3639 11.4297 41.4789 11.579C41.6382 11.6913 41.8327 11.7422 42.0266 11.7224C42.1456 11.7218 42.2643 11.714 42.3823 11.699ZM0.84038 5.40921C0.824806 5.41351 0.808311 5.41313 0.792954 5.40811C0.777597 5.40308 0.764061 5.39365 0.754035 5.38098C0.74401 5.36831 0.737941 5.35297 0.736585 5.33687C0.73523 5.32077 0.738648 5.30462 0.746414 5.29046C1.1478 4.55731 1.69402 3.9134 2.35192 3.39785C3.00982 2.8823 3.76565 2.50587 4.5735 2.29142C5.38348 2.07293 6.22918 2.01995 7.06009 2.13564C7.891 2.25133 8.69006 2.53332 9.40954 2.96476C9.42351 2.97287 9.43475 2.98495 9.44184 2.99946C9.44894 3.01396 9.45156 3.03025 9.44938 3.04626C9.4472 3.06226 9.44032 3.07725 9.42961 3.08934C9.41889 3.10142 9.40483 3.11005 9.3892 3.11413L0.84038 5.40921ZM11.3291 4.76612C12.1001 5.88971 12.4712 7.23984 12.3826 8.59967C12.3813 8.61683 12.3747 8.63315 12.3637 8.64637C12.3527 8.65959 12.3379 8.66904 12.3212 8.6734L1.15734 11.6706C1.14069 11.6751 1.12305 11.6743 1.10683 11.6685C1.09061 11.6626 1.07659 11.6519 1.06666 11.6377C0.29543 10.5141 -0.0757158 9.16384 0.0128511 7.80387C0.0141717 7.78674 0.0207912 7.77044 0.0317915 7.75724C0.0427918 7.74404 0.0576277 7.73458 0.0742417 7.73019L11.2383 4.73312C11.255 4.7286 11.2727 4.72934 11.2889 4.73525C11.3052 4.74116 11.3192 4.75194 11.3291 4.76612ZM11.5551 10.9946C11.5707 10.9903 11.5871 10.9907 11.6025 10.9957C11.6178 11.0008 11.6313 11.0102 11.6414 11.0229C11.6514 11.0356 11.6574 11.0509 11.6588 11.067C11.6601 11.0831 11.6567 11.0992 11.6489 11.1134C11.2476 11.8465 10.7014 12.4904 10.0435 13.006C9.38569 13.5215 8.6299 13.898 7.82207 14.1124C7.0121 14.3309 6.1664 14.3839 5.33549 14.2682C4.50459 14.1526 3.70552 13.8706 2.98603 13.4392C2.97209 13.431 2.96086 13.419 2.95378 13.4045C2.94669 13.39 2.94406 13.3737 2.94622 13.3577C2.94838 13.3417 2.95523 13.3267 2.96591 13.3147C2.97659 13.3026 2.99062 13.2939 3.00622 13.2898L11.5551 10.9946Z" fill="white"/>
</svg>
