<svg width="61" height="17" viewBox="0 0 61 17" fill="none" xmlns="http://www.w3.org/2000/svg">
<path d="M9.76054 7.22656V8.57387C9.70791 8.57387 9.39213 8.60003 8.77373 8.60003C8.26059 8.60003 7.87903 8.57387 7.74746 8.57387V7.22656C5.74753 7.31813 4.26074 7.65822 4.26074 8.07681C4.26074 8.49539 5.74753 8.83548 7.74746 8.92705C7.87903 8.92705 8.24744 8.95321 8.76058 8.95321C9.40529 8.95321 9.70791 8.94013 9.76054 8.92705C11.7605 8.83548 13.2473 8.49539 13.2473 8.07681C13.2473 7.65822 11.7605 7.31813 9.76054 7.22656Z" fill="white"/>
<path d="M8.89217 0.03125C4.37917 0.03125 0.708252 3.66767 0.708252 8.16742C0.708252 12.6672 4.36601 16.3036 8.89217 16.3036C13.4183 16.3036 17.0761 12.6672 17.0761 8.16742C17.0761 3.66767 13.4183 0.03125 8.89217 0.03125ZM9.77371 9.25311V13.125H7.76063V9.25311C5.49755 9.14847 3.80024 8.70373 3.80024 8.16742C3.80024 7.63111 5.49755 7.18637 7.76063 7.08172V5.8783H4.97125V4.03393H12.5499V5.8783H9.76055V7.08172C12.0236 7.18637 13.7209 7.63111 13.7209 8.16742C13.7209 8.70373 12.0236 9.14847 9.77371 9.25311Z" fill="white"/>
<path d="M24.1678 4.62322V6.57223H26.0757V8.03727H24.1547V11.0197C24.1547 11.6737 24.5231 12.0007 25.0494 12.0007C25.3125 12.0007 25.6283 11.9222 25.8783 11.7914L26.352 13.2434C25.8651 13.4396 25.4573 13.5181 24.931 13.5311C23.431 13.5835 22.4442 12.7332 22.4442 11.0197V8.05035H21.1548V6.57223H22.4442V4.80634L24.1678 4.62322ZM57.1009 6.48067L57.2324 7.27859C57.7719 6.42835 58.4824 6.29754 59.1797 6.29754C59.8902 6.29754 60.5876 6.57223 60.956 6.95157L60.1797 8.42969C59.8244 8.14191 59.5087 7.98494 58.9429 7.98494C58.0482 7.98494 57.2193 8.45585 57.2193 9.72467V13.3611H55.5088V6.48067H57.1009ZM52.9036 9.12296C52.7852 8.23348 52.0879 7.78873 51.1011 7.78873C50.1801 7.78873 49.4169 8.23348 49.1669 9.12296H52.9036ZM49.1406 10.5357C49.259 11.3859 49.9959 12.0007 51.2063 12.0007C51.8379 12.0007 52.6668 11.7653 53.0615 11.3598L54.1536 12.4324C53.4299 13.191 52.2326 13.5442 51.18 13.5442C48.7985 13.5442 47.3775 12.0792 47.3775 9.86856C47.3775 7.77565 48.8117 6.27138 51.0616 6.27138C53.3773 6.27138 54.8246 7.69717 54.5615 10.5226H49.1406V10.5357ZM41.5883 3.58984V7.40939C42.2067 6.61147 42.9698 6.37602 43.7461 6.37602C45.7065 6.37602 46.5881 7.69717 46.5881 9.72467V13.3742H44.8776V9.75083C44.8776 8.49509 44.2197 7.95878 43.2987 7.95878C42.2856 7.95878 41.5883 8.80902 41.5883 9.8424V13.3742H39.8778V3.60292L41.5883 3.58984ZM37.0358 4.54473V6.49375H38.9436V7.95878H37.0226V10.9281C37.0226 11.5821 37.391 11.9091 37.9173 11.9091C38.1805 11.9091 38.4963 11.8307 38.7463 11.6998L39.2199 13.1518C38.7331 13.348 38.3252 13.4265 37.7989 13.4396C36.299 13.4919 35.3122 12.6417 35.3122 10.9281V7.97186H34.0227V6.49375H35.3122V4.72786L37.0358 4.54473ZM32.2991 9.12296C32.1807 8.23348 31.4834 7.78873 30.4966 7.78873C29.5755 7.78873 28.8124 8.23348 28.5624 9.12296H32.2991ZM28.5361 10.5357C28.6545 11.3859 29.3913 12.0007 30.6018 12.0007C31.2334 12.0007 32.0623 11.7653 32.457 11.3598L33.5491 12.4324C32.8123 13.191 31.6281 13.5442 30.5755 13.5442C28.194 13.5442 26.773 12.0792 26.773 9.86856C26.773 7.77565 28.2072 6.27138 30.4571 6.27138C32.7728 6.27138 34.2201 7.69717 33.957 10.5226H28.5361V10.5357Z" fill="white"/>
</svg>
