<svg width="36" height="12" viewBox="0 0 36 12" fill="none" xmlns="http://www.w3.org/2000/svg">
<path d="M14.0771 0.73635L9.54553 11.6153H6.56132L4.36658 3.01003C4.34885 2.80583 4.27842 2.60972 4.16218 2.44089C4.04594 2.27206 3.88786 2.1363 3.70342 2.04687C2.82815 1.62767 1.90578 1.31491 0.956055 1.1153V0.799508H5.69289C6.00639 0.803199 6.30844 0.917824 6.54546 1.12305C6.78248 1.32827 6.93913 1.61082 6.98763 1.92056L8.15605 8.23635L11.0613 0.831086L14.0771 0.73635ZM25.6508 8.06266C25.6508 5.20477 21.7034 5.04687 21.735 3.75214C21.735 3.37319 22.1139 2.94687 22.9192 2.85214C23.8662 2.75625 24.8214 2.92 25.6824 3.32582L26.1718 1.02056C25.3319 0.713254 24.4452 0.553013 23.5508 0.546875C20.7876 0.546875 18.8139 2.0153 18.8139 4.14687C18.8139 5.72582 20.2034 6.57845 21.2613 7.09951C22.3192 7.62056 22.7139 7.98372 22.7139 8.4574C22.7139 9.18372 21.8455 9.49951 21.0403 9.5153C20.0397 9.54165 19.0495 9.3077 18.1666 8.83635L17.6139 11.2206C18.6212 11.6078 19.6928 11.8007 20.7718 11.789C23.7087 11.789 25.6192 10.3363 25.635 8.06266M32.9297 11.6153H35.5034L33.2613 0.73635H30.8929C30.6355 0.736081 30.3838 0.812546 30.1701 0.95598C29.9563 1.09941 29.7902 1.3033 29.6929 1.54161L25.5087 11.6153H28.4455L29.0139 10.0363H32.5982L32.9297 11.6153ZM29.7718 7.76266L31.256 3.68898L32.1403 7.74687L29.7718 7.76266ZM18.0245 0.73635L15.7192 11.6153H12.9718L15.2771 0.73635H18.0245Z" fill="white"/>
</svg>
