<svg width="17" height="15" viewBox="0 0 17 15" fill="none" xmlns="http://www.w3.org/2000/svg">
<path fill-rule="evenodd" clip-rule="evenodd" d="M16.2635 0.0157751L0.306859 6.34245C-0.102286 6.50894 -0.102286 7.09166 0.306859 7.17491L4.23466 8.67333L5.70758 13.5848C5.78941 13.9178 6.19856 14.0011 6.44404 13.8346L8.65343 12.0032C8.89892 11.8367 9.22623 11.8367 9.47172 12.0032L13.3995 14.9168C13.645 15.0832 14.0542 15 14.136 14.667L17 0.681741C16.9182 0.182266 16.5909 -0.0674706 16.2635 0.0157751ZM13.2359 3.3456L6.93502 9.25605C6.68953 9.50578 6.6077 9.75552 6.52587 10.0885L6.28039 11.6702C6.28039 11.9199 5.95307 11.9199 5.87124 11.6702L5.05295 8.75657C4.97112 8.42359 5.13478 8.09061 5.38026 7.84087L12.9904 3.09587C13.154 3.01262 13.3177 3.17911 13.2359 3.3456Z" fill="#FF2929"/>
</svg>
