<svg width="46" height="16" viewBox="0 0 46 16" fill="none" xmlns="http://www.w3.org/2000/svg">
<path fill-rule="evenodd" clip-rule="evenodd" d="M33.0088 4.35209C34.0505 4.35209 34.895 3.55113 34.895 2.56344C34.895 1.57517 34.0505 0.773438 33.0088 0.773438C31.9682 0.773438 31.1242 1.57517 31.1242 2.56344C31.1242 3.55113 31.9682 4.35209 33.0088 4.35209ZM18.5629 5.31805C18.4778 5.52094 17.8652 7.16305 16.3837 8.86498V1.58786L12.4362 2.32825V15.5188H16.3837V11.4415C17.527 13.0688 18.0916 15.5188 18.0916 15.5188H22.8199C22.3521 13.6736 20.3063 10.2713 20.3063 10.2713C22.1424 8.06209 22.9489 5.70805 23.0772 5.31805H18.5629ZM28.9407 5.18036C25.405 5.28805 23.6102 6.79344 23.6102 9.78594V15.5188H27.4675V10.8438C27.4675 9.0519 27.7147 8.28382 29.9553 8.21055V5.23286C29.5782 5.1569 28.9407 5.18036 28.9407 5.18036ZM5.81586 6.77055C5.33235 6.74036 4.21295 6.67171 4.21295 5.71536C4.21295 4.56132 5.82457 4.56132 6.42906 4.56132C7.49192 4.56132 8.86848 4.8594 9.8515 5.13844C9.8515 5.13844 10.3998 5.3219 10.8665 5.50978L10.9099 5.52094V2.36036L10.8503 2.34363C9.69019 1.95844 8.3412 1.58786 5.84018 1.58786C1.52793 1.58786 0 3.9719 0 6.01421C0 7.19151 0.531736 9.96229 5.47035 10.2819C5.88901 10.3063 7.00011 10.3671 7.00011 11.3554C7.00011 12.1713 6.09044 12.6525 4.56048 12.6525C2.88381 12.6525 1.2574 12.2467 0.269515 11.8619V15.1171C1.74841 15.485 3.41555 15.6688 5.36944 15.6688C9.58583 15.6688 11.4743 13.4132 11.4743 11.1777C11.4743 8.64286 9.3611 6.99594 5.81586 6.77055ZM31.0966 15.5188H34.9227V5.32959H31.0966V15.5188ZM42.1271 2.23748V15.5188H45.9538V1.58786L42.1271 2.23748ZM36.5435 2.23748L40.3665 1.58786V15.5188H36.5435V2.23748Z" fill="white"/>
</svg>
