<svg width="61" height="14" viewBox="0 0 61 14" fill="none" xmlns="http://www.w3.org/2000/svg">
<g clip-path="url(#clip0_7612_9268)">
<path d="M5.7838 7.24609L5.40747 8.7367C5.88284 8.85285 7.32875 9.2981 7.54662 8.46568C7.7645 7.57519 6.25917 7.36224 5.7838 7.24609Z" fill="white"/>
<path d="M6.29888 5.19531L5.96216 6.55041C6.3583 6.6472 7.56652 7.03437 7.76459 6.26003C7.96266 5.46633 6.69501 5.29211 6.29888 5.19531Z" fill="white"/>
<path d="M7.8637 1.16818C4.47671 0.335765 1.0303 2.34905 0.198409 5.67872C-0.65329 8.98903 1.40663 12.3574 4.81343 13.1705C8.20042 14.0029 11.6468 11.9702 12.4985 8.65993C13.3304 5.34962 11.2705 1.98124 7.8637 1.16818ZM9.13135 6.27883C9.03231 6.87895 8.69559 7.16933 8.24004 7.28548C8.87386 7.59521 9.19077 8.09853 8.87386 8.93095C8.49753 9.97631 7.60621 10.0731 6.4178 9.8408L6.1405 10.983L5.44725 10.8087L5.72455 9.70529C5.54629 9.66658 5.36803 9.6085 5.16996 9.56978L4.89266 10.6926L4.19942 10.5184L4.49652 9.39556C4.33806 9.35684 4.1598 9.31812 4.00135 9.27941L3.09023 9.06646L3.42694 8.29212C3.42694 8.29212 3.94192 8.42763 3.94192 8.40827C4.13999 8.44699 4.21922 8.33084 4.25884 8.2534L4.7144 6.47242C4.7342 6.47242 4.77382 6.49178 4.79362 6.49178C4.77382 6.47242 4.7342 6.47242 4.7144 6.47242L5.03131 5.19476C5.03131 5.05925 4.99169 4.86566 4.7144 4.80758C4.7342 4.80758 4.21922 4.69143 4.21922 4.69143L4.39748 3.95581L5.34822 4.18811C5.48687 4.22683 5.64532 4.26555 5.78397 4.2849L6.06127 3.16211L6.75451 3.33634L6.47722 4.43977C6.65548 4.47849 6.85355 4.51721 7.03181 4.57528L7.30911 3.49121L8.00235 3.66543L7.72505 4.78823C8.61637 5.02053 9.25019 5.46578 9.13135 6.27883Z" fill="white"/>
<path d="M18.579 4.72821C19.094 4.72821 19.5298 4.825 19.9061 4.99923C20.2824 5.17346 20.5993 5.42512 20.837 5.71549C21.0747 6.02523 21.2728 6.37368 21.3916 6.78021C21.5105 7.18674 21.5699 7.63199 21.5699 8.09659C21.5699 8.81286 21.4312 9.49041 21.1539 10.1486C20.8766 10.7874 20.5201 11.3488 20.0447 11.8328C19.5694 12.3168 19.0148 12.6846 18.381 12.9556C17.7273 13.2266 17.0341 13.3621 16.2814 13.3621C16.1824 13.3621 16.0239 13.3621 15.7664 13.3621C15.509 13.3621 15.2515 13.3428 14.9346 13.2847C14.6176 13.246 14.3007 13.1879 13.9442 13.0911C13.5877 13.0137 13.2708 12.8975 12.9539 12.7426L15.7466 1.35983L18.2423 0.972656L17.252 5.01859C17.4698 4.9218 17.6877 4.84436 17.8858 4.80564C18.1037 4.74757 18.3215 4.72821 18.579 4.72821ZM16.4795 11.4263C16.8558 11.4263 17.2124 11.3295 17.5293 11.1552C17.866 10.981 18.1433 10.7487 18.381 10.439C18.6186 10.1486 18.8167 9.80014 18.9554 9.43233C19.094 9.06452 19.1732 8.65799 19.1732 8.25146C19.1732 7.74814 19.094 7.36097 18.9158 7.07059C18.7375 6.78021 18.4206 6.6447 17.965 6.6447C17.8066 6.6447 17.6283 6.66406 17.3708 6.72214C17.1331 6.78021 16.9152 6.87701 16.7172 7.05123L15.6674 11.3488C15.7268 11.3682 15.7863 11.3682 15.8457 11.3875C15.8853 11.4069 15.9447 11.4069 16.0041 11.4069C16.0635 11.4069 16.123 11.4069 16.2022 11.4069C16.2814 11.4069 16.3805 11.4263 16.4795 11.4263Z" fill="white"/>
<path d="M24.1447 13.1507H21.7678L23.7683 4.90399H26.165L24.1447 13.1507ZM25.2935 3.89735C24.9567 3.89735 24.6596 3.80056 24.4021 3.60697C24.1249 3.41338 24.006 3.12301 24.006 2.71648C24.006 2.50353 24.0456 2.29059 24.1447 2.09701C24.2437 1.90342 24.3625 1.72919 24.5012 1.59368C24.6596 1.45817 24.8181 1.34202 25.0162 1.26459C25.2142 1.18715 25.4321 1.14844 25.65 1.14844C25.9867 1.14844 26.2838 1.24523 26.5413 1.43882C26.7988 1.6324 26.9374 1.92278 26.9374 2.32931C26.9374 2.54225 26.8978 2.75519 26.7988 2.94878C26.6998 3.14237 26.5809 3.31659 26.4423 3.4521C26.2838 3.58761 26.1254 3.70376 25.9273 3.7812C25.7292 3.85863 25.5113 3.89735 25.2935 3.89735Z" fill="white"/>
<path d="M28.2448 2.85219L30.7405 2.48438L30.1067 4.90419H32.7608L32.2854 6.82069H29.6313L28.9381 9.68575C28.8787 9.91805 28.839 10.1504 28.8192 10.3633C28.7994 10.5762 28.839 10.7505 28.8985 10.9053C28.9579 11.0602 29.0767 11.1764 29.2352 11.2538C29.3936 11.3312 29.6313 11.3893 29.9482 11.3893C30.2057 11.3893 30.4632 11.3699 30.7009 11.3119C30.9386 11.2731 31.1763 11.1957 31.4337 11.1183L31.612 12.8993C31.2951 13.0154 30.9386 13.1122 30.5622 13.1896C30.1859 13.2671 29.7502 13.3058 29.2352 13.3058C28.5023 13.3058 27.9279 13.1896 27.512 12.9767C27.096 12.7638 26.8187 12.4734 26.6405 12.1056C26.4622 11.7378 26.4028 11.3119 26.4226 10.8279C26.4424 10.3439 26.5216 9.84062 26.6405 9.29858L28.2448 2.85219Z" fill="white"/>
<path d="M32.6814 9.86013C32.6814 9.14387 32.8002 8.48568 33.0379 7.84685C33.2756 7.22737 33.6123 6.66598 34.0481 6.20137C34.4838 5.73677 35.0186 5.36895 35.6524 5.09793C36.2665 4.82692 36.9795 4.69141 37.752 4.69141C38.2273 4.69141 38.6631 4.73012 39.0394 4.82692C39.4158 4.92371 39.7723 5.03986 40.0694 5.17537L39.2573 6.99507C39.0394 6.91764 38.8216 6.8402 38.5839 6.76277C38.3462 6.68533 38.0689 6.66598 37.7322 6.66598C36.9399 6.66598 36.3061 6.937 35.8505 7.45968C35.395 8.00171 35.1573 8.71798 35.1573 9.60847C35.1573 10.1505 35.2761 10.5764 35.5138 10.9055C35.7515 11.2346 36.1872 11.3895 36.8211 11.3895C37.138 11.3895 37.4351 11.3507 37.7124 11.2927C38.0095 11.2346 38.267 11.1572 38.4848 11.0604L38.6631 12.9188C38.366 13.0349 38.0293 13.1317 37.6727 13.2285C37.3162 13.3059 36.8805 13.364 36.3655 13.364C35.7119 13.364 35.1375 13.2672 34.6819 13.0736C34.2263 12.8801 33.85 12.6284 33.5529 12.3187C33.2558 11.9896 33.0379 11.6218 32.8993 11.1959C32.7408 10.77 32.6814 10.3247 32.6814 9.86013Z" fill="white"/>
<path d="M43.2187 13.364C42.6443 13.364 42.1689 13.2866 41.7332 13.1124C41.3172 12.9381 40.9805 12.7058 40.7032 12.4155C40.4259 12.1057 40.2278 11.7573 40.0892 11.3507C39.9505 10.9442 39.8911 10.4796 39.8911 9.97628C39.8911 9.35681 39.9901 8.71798 40.208 8.09851C40.4061 7.47903 40.723 6.89828 41.139 6.41431C41.5351 5.91099 42.0501 5.50446 42.6245 5.17537C43.2187 4.86563 43.8921 4.69141 44.6448 4.69141C45.1994 4.69141 45.6946 4.76884 46.1105 4.94307C46.5264 5.11729 46.883 5.3496 47.1603 5.63997C47.4376 5.94971 47.6356 6.29816 47.7743 6.70469C47.9129 7.11122 47.9922 7.57583 47.9922 8.07915C47.9922 8.69862 47.8931 9.33745 47.6951 9.95692C47.497 10.5764 47.1999 11.1378 46.8037 11.6411C46.4076 12.1444 45.9124 12.551 45.3182 12.8801C44.6844 13.2092 43.9912 13.364 43.2187 13.364ZM44.4071 6.64662C44.0506 6.64662 43.7535 6.74341 43.4762 6.93699C43.1989 7.13058 42.981 7.38224 42.8027 7.69198C42.6245 8.00171 42.4858 8.33081 42.3868 8.67926C42.2878 9.04707 42.2481 9.37617 42.2481 9.70526C42.2481 10.2279 42.3274 10.6345 42.5056 10.9249C42.6839 11.2152 42.981 11.3701 43.4366 11.3701C43.7931 11.3701 44.0902 11.2733 44.3675 11.0797C44.625 10.8861 44.8627 10.6345 45.0409 10.3247C45.2192 10.015 45.3578 9.68591 45.4569 9.33745C45.5559 8.96964 45.5955 8.64055 45.5955 8.31145C45.5955 7.78877 45.5163 7.38224 45.338 7.09186C45.1598 6.80149 44.8627 6.64662 44.4071 6.64662Z" fill="white"/>
<path d="M50.5472 13.1507H48.1704L50.1709 4.90399H52.5676L50.5472 13.1507ZM51.7159 3.89735C51.3791 3.89735 51.082 3.80056 50.8245 3.60697C50.5671 3.41338 50.4284 3.12301 50.4284 2.71648C50.4284 2.50353 50.468 2.29059 50.5671 2.09701C50.6661 1.90342 50.7849 1.72919 50.9236 1.59368C51.082 1.45817 51.2405 1.34202 51.4386 1.26459C51.6366 1.18715 51.8545 1.14844 52.0724 1.14844C52.4091 1.14844 52.7062 1.24523 52.9637 1.43882C53.2212 1.6324 53.3598 1.92278 53.3598 2.32931C53.3598 2.54225 53.3202 2.75519 53.2212 2.94878C53.1222 3.14237 53.0033 3.31659 52.8647 3.4521C52.7062 3.58761 52.5477 3.70376 52.3497 3.7812C52.1516 3.85863 51.9337 3.89735 51.7159 3.89735Z" fill="white"/>
<path d="M54.291 5.26843C54.4692 5.21035 54.6673 5.15228 54.8852 5.0942C55.1031 5.03613 55.3407 4.95869 55.618 4.90062C55.8953 4.84254 56.1924 4.80382 56.5292 4.76511C56.8659 4.72639 57.2422 4.70703 57.678 4.70703C58.9258 4.70703 59.7973 5.05548 60.2727 5.77175C60.748 6.48802 60.8273 7.45594 60.5302 8.69489L59.4408 13.1473H57.0441L58.0939 8.79168C58.1533 8.52066 58.2127 8.24964 58.2524 7.99798C58.292 7.74632 58.292 7.51402 58.2524 7.32043C58.2127 7.12685 58.1137 6.97198 57.9553 6.85583C57.7968 6.73968 57.5591 6.6816 57.2422 6.6816C56.9253 6.6816 56.6084 6.72032 56.2915 6.77839L54.7267 13.1667H52.3301L54.291 5.26843Z" fill="white"/>
</g>
<defs>
<clipPath id="clip0_7612_9268">
<rect width="60.7083" height="12.3895" fill="white" transform="translate(0 0.972656)"/>
</clipPath>
</defs>
</svg>
