<svg width="86" height="27" viewBox="0 0 86 27" fill="none" xmlns="http://www.w3.org/2000/svg">
<path d="M17.2072 8.60362C17.181 8.66412 17.1651 8.72866 17.1298 8.83538C17.2261 8.78475 17.2813 8.76063 17.3311 8.72889C18.8324 7.76541 20.5557 7.15996 22.3552 6.96376C25.3249 6.62912 28.0162 7.2873 30.3602 9.06922C32.3937 10.6151 33.6841 12.6224 34.0743 15.072C34.6383 18.6121 33.4297 21.5768 30.5972 23.9224C29.0768 25.1815 27.2758 25.902 25.2863 26.2011C23.4168 26.4822 21.5691 26.3989 19.79 25.7691C16.2386 24.512 14.0645 22.0805 13.1649 18.5982L17.2072 8.60362ZM23.7534 11.0134C23.6046 11.0206 23.4489 11.0248 23.2937 11.0362C21.3022 11.182 19.8074 12.0718 18.8788 13.7586C18.161 15.0624 17.9982 16.454 18.2987 17.8927C18.5193 18.9483 18.9806 19.8999 19.7875 20.6655C21.2638 22.0661 23.0653 22.4332 25.0527 22.0312C26.4737 21.7438 27.498 20.9041 28.1638 19.6994C29.2692 17.6994 29.2977 15.6521 28.2506 13.6318C27.345 11.8846 25.8075 11.0346 23.7534 11.0134Z" fill="white"/>
<path d="M34.9571 26.3893V13.8888C35.0058 13.9232 35.0522 13.9605 35.0958 14.0005C36.4267 15.4496 37.7577 16.8985 39.0889 18.3472C39.1721 18.4389 39.2136 18.5582 39.2043 18.679C39.2012 19.706 39.2026 20.733 39.2026 21.76V22.0544C39.2886 22.0627 39.3499 22.0737 39.4112 22.0737C40.2629 22.074 41.1147 22.0797 41.9663 22.0696C42.5896 22.0694 43.2098 21.9872 43.8093 21.8253C44.4297 21.6558 44.9815 21.3117 45.3921 20.8383C46.2848 19.8213 46.8015 18.6487 46.9746 17.3398C47.0985 16.378 47.0219 15.4023 46.749 14.4687C46.2394 12.6832 44.9975 11.65 43.0999 11.3029C42.5498 11.2099 41.9915 11.1667 41.4328 11.1742C39.3996 11.1732 37.3665 11.173 35.3333 11.1737H34.9632V6.88199C35.033 6.86976 35.1036 6.86166 35.1745 6.85775C37.5923 6.86185 40.0107 6.83494 42.4275 6.88357C44.2125 6.91949 45.9304 7.29613 47.5087 8.13097C49.4405 9.15279 50.6998 10.7018 51.411 12.6721C51.7696 13.6657 51.9549 14.691 52.0243 15.7382C52.1035 16.8418 52.0453 17.9505 51.851 19.0411C51.6036 20.3926 51.0612 21.6218 50.1768 22.715C49.7066 23.2962 49.222 23.8606 48.6346 24.3398C47.4074 25.341 45.978 25.923 44.3967 26.191C43.5756 26.3275 42.7434 26.3958 41.9098 26.395C39.666 26.4003 37.4223 26.4017 35.1785 26.399C35.1148 26.399 35.0511 26.3936 34.9571 26.3893Z" fill="white"/>
<path d="M52.8759 11.1737V6.88555C52.9448 6.87166 53.0147 6.86243 53.0851 6.85794C55.512 6.86202 57.9393 6.84439 60.3656 6.88231C61.7611 6.90227 63.1402 7.17162 64.431 7.67632C66.8547 8.62244 68.4616 10.3007 69.3184 12.6403C69.6847 13.6406 69.8713 14.6748 69.9425 15.7308C70.012 16.7301 69.9722 17.7336 69.8237 18.7251C69.6019 20.1901 69.0586 21.5291 68.0991 22.7088C67.6953 23.2053 67.2893 23.6973 66.8043 24.1261C65.5327 25.2507 64.0197 25.9011 62.3226 26.19C61.5015 26.3271 60.6694 26.3956 59.8357 26.3948C57.6011 26.4004 55.3665 26.4018 53.1319 26.3988C53.0519 26.3988 52.9719 26.3906 52.8778 26.3855V13.8952C52.9305 13.9315 52.9805 13.9714 53.0273 14.0145C54.3522 15.4569 55.6771 16.8994 57.0019 18.3419C57.0867 18.4322 57.1303 18.5508 57.1231 18.6717C57.119 19.6987 57.1208 20.7257 57.1208 21.7528C57.1208 21.8472 57.1208 21.9417 57.1208 22.0522C57.2094 22.0609 57.2793 22.0736 57.3492 22.0737C58.2009 22.0741 59.0527 22.08 59.9043 22.0691C60.5276 22.0684 61.1477 21.9846 61.7465 21.82C62.3483 21.6531 62.8845 21.3203 63.2873 20.8635C64.1929 19.8444 64.7162 18.665 64.8919 17.3471C65.0166 16.3854 64.9409 15.4097 64.6692 14.4758C64.1621 12.6896 62.9227 11.6539 61.0257 11.3041C60.4666 11.2093 59.8991 11.1657 59.3312 11.174C57.3072 11.1734 55.2832 11.1733 53.2592 11.1738L52.8759 11.1737Z" fill="white"/>
<path d="M86 7.46477C85.916 7.5659 85.8674 7.62829 85.8146 7.68731C84.6825 8.95463 83.5511 10.2225 82.4204 11.491C82.3718 11.552 82.308 11.6007 82.2349 11.6327C82.1617 11.6647 82.0814 11.6791 82.001 11.6745C80.5997 11.6681 79.1983 11.6719 77.797 11.6704C77.4942 11.6643 77.193 11.7146 76.9106 11.8185C76.0627 12.1454 75.6048 13.1275 75.9179 13.9449C76.0042 14.1769 76.1659 14.3769 76.3797 14.5157C76.6328 14.6872 76.9 14.839 77.1788 14.9696C77.6511 15.1789 78.1329 15.3718 78.6216 15.5436C79.4554 15.8335 80.2732 16.1633 81.0718 16.5319C81.5312 16.7459 81.9716 16.9972 82.4171 17.2375C82.5014 17.2898 82.5795 17.3506 82.65 17.4189C83.5343 18.1804 84.0623 19.1163 84.1888 20.2507C84.3158 21.3883 84.1949 22.4942 83.7051 23.5472C82.9616 25.1458 81.6615 26.1436 79.9274 26.6568C79.1482 26.8874 78.3365 27.0031 77.5204 26.9999C74.7727 26.9942 72.025 26.9935 69.2773 26.9978H68.8827C68.9209 26.935 68.9626 26.8741 69.0076 26.8155C70.1505 25.5341 71.2931 24.2524 72.4355 22.9706C72.5433 22.8491 72.66 22.8181 72.8164 22.8185C74.2085 22.8224 75.6008 22.8261 76.9929 22.816C77.2668 22.819 77.5398 22.7837 77.803 22.7113C78.7072 22.4405 79.2137 21.4686 78.9262 20.6081C78.8462 20.3552 78.678 20.1358 78.4493 19.9859C78.1784 19.8099 77.9011 19.6316 77.602 19.5082C76.8889 19.2142 76.1584 18.9585 75.4402 18.6752C74.4087 18.2685 73.3765 17.8602 72.437 17.2761C72.2731 17.1654 72.1208 17.0397 71.9824 16.901C71.1182 16.0956 70.6826 15.1074 70.6076 13.9669C70.5487 13.0712 70.6345 12.1918 70.9565 11.3435C71.6248 9.5824 72.9356 8.45612 74.7867 7.87247C75.6861 7.5965 76.6259 7.45767 77.571 7.46113C80.3095 7.44702 83.0481 7.45547 85.7866 7.45543C85.8395 7.45541 85.8924 7.4599 86 7.46477Z" fill="white"/>
<path d="M21.6287 0H15.7361L10.8078 11.7658L19.9681 3.96622L21.6287 0Z" fill="white"/>
<path d="M19.9681 3.96622L10.8078 11.7658L10.5333 25.7408L19.9681 3.96622Z" fill="#C4C4C4"/>
<path d="M10.9161 11.4987L10.5333 25.7408L8.14949 17.9033L10.9161 11.4987Z" fill="#C4C4C4"/>
<path d="M5.51755 12.5187L5.34345 24.948L5.61701 25.7613L8.29429 18.002L5.51755 12.5187Z" fill="#C4C4C4"/>
<path d="M8.20016 17.7831L5.61701 25.7613L10.5333 25.7408L8.20016 17.7831Z" fill="white"/>
<path d="M5.51755 12.5187H0L5.51755 25.4239V12.5187Z" fill="white"/>
</svg>
