<svg aria-hidden="true" style="position: absolute; width: 0; height: 0; overflow: hidden;" version="1.1" xmlns="http://www.w3.org/2000/svg" xmlns:xlink="http://www.w3.org/1999/xlink">
<defs>
<symbol id="tg" viewBox="0 0 39 32">
<path  d="M37.572 1.201l-6.227 29.953c-0.147 0.707-0.976 1.028-1.561 0.602l-8.501-6.172c-0.516-0.375-1.22-0.355-1.714 0.048l-4.713 3.842c-0.547 0.447-1.371 0.198-1.581-0.476l-3.273-10.525-8.455-3.156c-0.859-0.322-0.866-1.534-0.010-1.864l34.699-13.386c0.736-0.284 1.495 0.36 1.334 1.132z"></path>
<path fill="transparent"  d="M29.273 6.616l-16.524 10.177c-0.633 0.391-0.931 1.156-0.727 1.872l1.787 6.277c0.127 0.445 0.772 0.399 0.834-0.060l0.464-3.442c0.088-0.648 0.397-1.245 0.876-1.692l13.637-12.676c0.255-0.236-0.050-0.638-0.347-0.456z"></path>
</symbol>
<symbol id="footer-12" viewBox="0 0 32 32">
<path  d="M24.727 2.182c2.812 0 5.091 2.279 5.091 5.091v17.455c0 2.812-2.279 5.091-5.091 5.091h-17.455c-2.812 0-5.091-2.279-5.091-5.091v-17.455c0-2.812 2.279-5.091 5.091-5.091h17.455zM7.273 0c-4.017 0-7.273 3.256-7.273 7.273v17.455c0 4.017 3.256 7.273 7.273 7.273h17.455c4.017 0 7.273-3.256 7.273-7.273v-17.455c0-4.017-3.256-7.273-7.273-7.273h-17.455z"></path>
<path  d="M17.955 5.872c-0.824 0.216-1.416 0.549-2.095 1.199-0.954 0.925-1.199 1.763-1.3 4.392l-0.072 2.21h-2.413v3.756h2.456l0.029 6.242 0.043 6.256 2.355 0.043 2.341 0.029v-12.57h3.727l0.087-0.404c0.043-0.217 0.116-1.055 0.173-1.878l0.087-1.474h-4.074v-1.358c0-1.575 0.159-2.138 0.679-2.413 0.376-0.202 1.459-0.26 2.644-0.13l0.65 0.072 0.274-1.763c0.159-0.982 0.246-1.82 0.188-1.864-0.319-0.332-4.812-0.592-5.78-0.347z"></path>
</symbol>
<symbol id="footer-13" viewBox="0 0 32 32">
<path  d="M16.002 0c-4.345 0-4.891 0.019-6.597 0.097-1.703 0.078-2.866 0.348-3.883 0.743-1.052 0.409-1.945 0.955-2.834 1.845s-1.437 1.782-1.847 2.834c-0.397 1.018-0.667 2.181-0.743 3.883-0.076 1.707-0.096 2.252-0.096 6.598s0.019 4.889 0.097 6.596c0.078 1.703 0.348 2.866 0.743 3.883 0.409 1.052 0.956 1.945 1.845 2.834s1.782 1.438 2.833 1.847c1.018 0.396 2.181 0.665 3.884 0.743 1.707 0.078 2.252 0.097 6.597 0.097s4.889-0.019 6.596-0.097c1.703-0.078 2.867-0.348 3.885-0.743 1.052-0.409 1.943-0.957 2.832-1.847 0.89-0.889 1.437-1.782 1.847-2.834 0.393-1.018 0.663-2.181 0.743-3.883 0.077-1.707 0.097-2.251 0.097-6.596s-0.020-4.891-0.097-6.597c-0.080-1.703-0.35-2.866-0.743-3.883-0.41-1.052-0.957-1.945-1.847-2.834s-1.78-1.437-2.833-1.845c-1.020-0.396-2.183-0.665-3.887-0.743-1.707-0.078-2.25-0.097-6.597-0.097h0.005zM14.566 2.883c0.426-0.001 0.901 0 1.435 0 4.272 0 4.778 0.015 6.465 0.092 1.56 0.071 2.407 0.332 2.971 0.551 0.747 0.29 1.279 0.637 1.839 1.197s0.907 1.093 1.197 1.84c0.219 0.563 0.48 1.41 0.551 2.97 0.077 1.687 0.093 2.193 0.093 6.463s-0.017 4.777-0.093 6.463c-0.071 1.56-0.332 2.407-0.551 2.97-0.29 0.747-0.637 1.278-1.197 1.838s-1.092 0.907-1.839 1.197c-0.563 0.22-1.411 0.48-2.971 0.551-1.687 0.077-2.193 0.093-6.465 0.093s-4.779-0.017-6.465-0.093c-1.56-0.072-2.407-0.333-2.971-0.552-0.747-0.29-1.28-0.637-1.84-1.197s-0.907-1.092-1.197-1.839c-0.219-0.563-0.48-1.41-0.551-2.97-0.077-1.687-0.092-2.193-0.092-6.466s0.015-4.777 0.092-6.463c0.071-1.56 0.332-2.407 0.551-2.971 0.29-0.747 0.637-1.28 1.197-1.84s1.093-0.907 1.84-1.197c0.564-0.22 1.411-0.48 2.971-0.552 1.476-0.067 2.048-0.087 5.030-0.090v0.004zM24.542 5.54c-1.060 0-1.92 0.859-1.92 1.919s0.86 1.92 1.92 1.92 1.92-0.86 1.92-1.92c0-1.060-0.86-1.919-1.92-1.919zM16.002 7.783c-4.538 0-8.217 3.679-8.217 8.217s3.679 8.215 8.217 8.215c4.538 0 8.215-3.677 8.215-8.215s-3.678-8.217-8.215-8.217zM16.002 10.667c2.945 0 5.333 2.388 5.333 5.333s-2.388 5.333-5.333 5.333c-2.946 0-5.333-2.388-5.333-5.333s2.388-5.333 5.333-5.333z"></path>
</symbol>
<symbol id="footer-14" viewBox="0 0 36 32">
<path  d="M34.695 0.034l-34.041 13.497c-0.873 0.355-0.873 1.598 0 1.776l8.379 3.197 3.142 10.478c0.175 0.71 1.047 0.888 1.571 0.533l4.713-3.907c0.524-0.355 1.222-0.355 1.746 0l8.379 6.216c0.524 0.355 1.397 0.178 1.571-0.533l6.11-29.835c-0.175-1.066-0.873-1.598-1.571-1.421zM28.237 7.137l-13.442 12.609c-0.524 0.533-0.698 1.066-0.873 1.776l-0.524 3.374c0 0.533-0.698 0.533-0.873 0l-1.746-6.216c-0.175-0.71 0.175-1.421 0.698-1.953l16.235-10.123c0.349-0.178 0.698 0.178 0.524 0.533z"></path>
</symbol>
<symbol id="footer-15" viewBox="0 0 41 32">
<path  d="M39.376 3.788c-1.449 0.643-3.006 1.077-4.64 1.272 1.668-1 2.949-2.583 3.552-4.469-1.561 0.926-3.29 1.598-5.13 1.96-1.474-1.57-3.573-2.551-5.897-2.551-4.461 0-8.079 3.617-8.079 8.078 0 0.633 0.071 1.25 0.209 1.841-6.714-0.337-12.667-3.553-16.651-8.441-0.695 1.193-1.094 2.581-1.094 4.061 0 2.803 1.426 5.275 3.594 6.724-1.324-0.042-2.57-0.405-3.659-1.010-0.001 0.034-0.001 0.068-0.001 0.102 0 3.914 2.785 7.179 6.48 7.922-0.678 0.185-1.392 0.283-2.128 0.283-0.521 0-1.027-0.051-1.52-0.145 1.028 3.209 4.011 5.545 7.547 5.61-2.765 2.167-6.248 3.459-10.033 3.459-0.652 0-1.295-0.038-1.927-0.113 3.575 2.292 7.821 3.63 12.384 3.63 14.859 0 22.985-12.31 22.985-22.985 0-0.35-0.008-0.699-0.023-1.045 1.578-1.139 2.948-2.561 4.031-4.182v0z"></path>
</symbol>
</defs>
</svg>
