<svg width="22" height="18" viewBox="0 0 22 18" fill="none" xmlns="http://www.w3.org/2000/svg">
<path fill-rule="evenodd" clip-rule="evenodd" d="M21.134 0.67551L17.6312 17.524C17.5487 17.9218 17.0823 18.1021 16.7532 17.8629L11.9716 14.3914C11.6813 14.1806 11.2855 14.1918 11.0076 14.4184L8.35649 16.5794C8.04886 16.831 7.58522 16.6908 7.4674 16.3119L5.62658 10.3918L0.870678 8.61678C0.387572 8.43581 0.383444 7.75377 0.865174 7.56821L20.3835 0.038554C20.7973 -0.121455 21.2242 0.241022 21.134 0.67551Z" fill="white"/>
<path fill-rule="evenodd" clip-rule="evenodd" d="M16.4658 3.72123L7.17096 9.44584C6.81471 9.66567 6.64703 10.0959 6.76196 10.4987L7.7669 14.0298C7.83839 14.28 8.20139 14.2544 8.23618 13.9959L8.49736 12.0595C8.5467 11.6949 8.72053 11.3589 8.99023 11.108L16.661 3.97756C16.8046 3.84455 16.6327 3.61869 16.4658 3.72123Z" fill="black"/>
</svg>
