<svg width="27" height="16" viewBox="0 0 27 16" fill="none" xmlns="http://www.w3.org/2000/svg">
<path fill-rule="evenodd" clip-rule="evenodd" d="M26.0592 1.25381C26.2424 0.645909 26.0592 0.199219 25.1872 0.199219H22.3038C21.5706 0.199219 21.2326 0.585093 21.0493 1.0106C21.0493 1.0106 19.583 4.56679 17.5058 6.87677C16.8337 7.54543 16.5282 7.75818 16.1616 7.75818C15.9784 7.75818 15.713 7.54543 15.713 6.93758V1.25381C15.713 0.52433 15.5003 0.199219 14.8893 0.199219H10.3582C9.90001 0.199219 9.62447 0.537789 9.62447 0.858664C9.62447 1.5502 10.663 1.70968 10.7701 3.65496V7.87982C10.7701 8.8061 10.602 8.97404 10.2354 8.97404C9.25789 8.97404 6.88013 5.40196 5.4699 1.31458C5.19353 0.520133 4.91633 0.199219 4.17941 0.199219H1.29598C0.472149 0.199219 0.307373 0.585093 0.307373 1.0106C0.307373 1.77049 1.28492 5.53943 4.85898 10.5241C7.24167 13.9283 10.5987 15.7736 13.6535 15.7736C15.4864 15.7736 15.7131 15.3637 15.7131 14.6578V12.0849C15.7131 11.2652 15.8867 11.1016 16.4671 11.1016C16.8948 11.1016 17.6279 11.3144 19.3387 12.9557C21.2937 14.9009 21.616 15.7736 22.7157 15.7736H25.5991C26.423 15.7736 26.8349 15.3637 26.5972 14.5549C26.3372 13.7488 25.4038 12.5792 24.1652 11.1928C23.4931 10.4025 22.4851 9.55153 22.1796 9.12593C21.7519 8.57889 21.8741 8.33568 22.1796 7.84941C22.1796 7.84941 25.6926 2.92548 26.0592 1.25381Z" fill="white"/>
</svg>
