<svg width="972" height="525" viewBox="0 0 972 525" fill="none" xmlns="http://www.w3.org/2000/svg">
<g opacity="0.6">
<g filter="url(#filter0_dddii_7612_9235)">
<path d="M1124.99 -113.401C1125.15 -113.765 1125.51 -114 1125.91 -114H1278.87C1279.59 -114 1280.07 -113.259 1279.78 -112.599L1031.33 454.401C1031.17 454.765 1030.81 455 1030.42 455H877.458C876.737 455 876.252 454.259 876.542 453.599L1124.99 -113.401Z" fill="#6B1C60"/>
<path d="M1124.99 -113.401C1125.15 -113.765 1125.51 -114 1125.91 -114H1278.87C1279.59 -114 1280.07 -113.259 1279.78 -112.599L1031.33 454.401C1031.17 454.765 1030.81 455 1030.42 455H877.458C876.737 455 876.252 454.259 876.542 453.599L1124.99 -113.401Z" fill="url(#paint0_radial_7612_9235)"/>
<path d="M1125.45 -113.201C1125.53 -113.383 1125.71 -113.5 1125.91 -113.5H1278.87C1279.23 -113.5 1279.47 -113.13 1279.33 -112.799L1279.78 -112.599L1279.33 -112.799L1030.87 454.201C1030.79 454.383 1030.61 454.5 1030.42 454.5H877.458C877.097 454.5 876.855 454.13 877 453.799L1125.45 -113.201Z" stroke="#330040"/>
</g>
<g opacity="0.8" filter="url(#filter1_dddii_7612_9235)">
<path d="M857.633 -113.401C857.792 -113.765 858.152 -114 858.549 -114H1011.51C1012.23 -114 1012.71 -113.259 1012.42 -112.599L763.971 454.401C763.812 454.765 763.452 455 763.055 455H610.097C609.376 455 608.892 454.259 609.181 453.599L857.633 -113.401Z" fill="#6B1C60"/>
<path d="M857.633 -113.401C857.792 -113.765 858.152 -114 858.549 -114H1011.51C1012.23 -114 1012.71 -113.259 1012.42 -112.599L763.971 454.401C763.812 454.765 763.452 455 763.055 455H610.097C609.376 455 608.892 454.259 609.181 453.599L857.633 -113.401Z" fill="url(#paint1_radial_7612_9235)"/>
<path d="M858.091 -113.201C858.171 -113.383 858.35 -113.5 858.549 -113.5H1011.51C1011.87 -113.5 1012.11 -113.13 1011.97 -112.799L1012.42 -112.599L1011.96 -112.799L763.513 454.201C763.434 454.383 763.254 454.5 763.055 454.5H610.097C609.736 454.5 609.494 454.13 609.639 453.799L858.091 -113.201Z" stroke="#330040"/>
</g>
<g opacity="0.6" filter="url(#filter2_dddii_7612_9235)">
<path d="M586.844 -113.401C587.003 -113.765 587.363 -114 587.76 -114H740.718C741.439 -114 741.923 -113.259 741.634 -112.599L493.182 454.401C493.023 454.765 492.663 455 492.266 455H339.308C338.587 455 338.103 454.259 338.392 453.599L586.844 -113.401Z" fill="#6B1C60"/>
<path d="M586.844 -113.401C587.003 -113.765 587.363 -114 587.76 -114H740.718C741.439 -114 741.923 -113.259 741.634 -112.599L493.182 454.401C493.023 454.765 492.663 455 492.266 455H339.308C338.587 455 338.103 454.259 338.392 453.599L586.844 -113.401Z" fill="url(#paint2_radial_7612_9235)"/>
<path d="M587.302 -113.201C587.381 -113.383 587.561 -113.5 587.76 -113.5H740.718C741.079 -113.5 741.321 -113.13 741.176 -112.799L741.634 -112.599L741.176 -112.799L492.724 454.201C492.645 454.383 492.465 454.5 492.266 454.5H339.308C338.947 454.5 338.705 454.13 338.85 453.799L587.302 -113.201Z" stroke="#330040"/>
</g>
<g opacity="0.4" filter="url(#filter3_dddii_7612_9235)">
<path d="M319.482 -113.401C319.641 -113.765 320.001 -114 320.398 -114H473.356C474.077 -114 474.561 -113.259 474.272 -112.599L225.82 454.401C225.661 454.765 225.301 455 224.904 455H71.946C71.2246 455 70.7405 454.259 71.0301 453.599L319.482 -113.401Z" fill="#6B1C60"/>
<path d="M319.482 -113.401C319.641 -113.765 320.001 -114 320.398 -114H473.356C474.077 -114 474.561 -113.259 474.272 -112.599L225.82 454.401C225.661 454.765 225.301 455 224.904 455H71.946C71.2246 455 70.7405 454.259 71.0301 453.599L319.482 -113.401Z" fill="url(#paint3_radial_7612_9235)"/>
<path d="M319.94 -113.201C320.019 -113.383 320.199 -113.5 320.398 -113.5H473.356C473.717 -113.5 473.959 -113.13 473.814 -112.799L474.272 -112.599L473.814 -112.799L225.362 454.201C225.282 454.383 225.103 454.5 224.904 454.5H71.946C71.5853 454.5 71.3433 454.13 71.488 453.799L319.94 -113.201Z" stroke="#330040"/>
</g>
</g>
<defs>
<filter id="filter0_dddii_7612_9235" x="806.457" y="-184" width="543.412" height="709" filterUnits="userSpaceOnUse" color-interpolation-filters="sRGB">
<feFlood flood-opacity="0" result="BackgroundImageFix"/>
<feColorMatrix in="SourceAlpha" type="matrix" values="0 0 0 0 0 0 0 0 0 0 0 0 0 0 0 0 0 0 127 0" result="hardAlpha"/>
<feOffset dy="2"/>
<feGaussianBlur stdDeviation="25"/>
<feComposite in2="hardAlpha" operator="out"/>
<feColorMatrix type="matrix" values="0 0 0 0 0.517647 0 0 0 0 0.14902 0 0 0 0 0.478431 0 0 0 1 0"/>
<feBlend mode="normal" in2="BackgroundImageFix" result="effect1_dropShadow_7612_9235"/>
<feColorMatrix in="SourceAlpha" type="matrix" values="0 0 0 0 0 0 0 0 0 0 0 0 0 0 0 0 0 0 127 0" result="hardAlpha"/>
<feOffset/>
<feGaussianBlur stdDeviation="35"/>
<feComposite in2="hardAlpha" operator="out"/>
<feColorMatrix type="matrix" values="0 0 0 0 0.517647 0 0 0 0 0.14902 0 0 0 0 0.478431 0 0 0 0.2 0"/>
<feBlend mode="normal" in2="effect1_dropShadow_7612_9235" result="effect2_dropShadow_7612_9235"/>
<feColorMatrix in="SourceAlpha" type="matrix" values="0 0 0 0 0 0 0 0 0 0 0 0 0 0 0 0 0 0 127 0" result="hardAlpha"/>
<feOffset/>
<feGaussianBlur stdDeviation="20"/>
<feComposite in2="hardAlpha" operator="out"/>
<feColorMatrix type="matrix" values="0 0 0 0 0.517647 0 0 0 0 0.14902 0 0 0 0 0.478431 0 0 0 1 0"/>
<feBlend mode="normal" in2="effect2_dropShadow_7612_9235" result="effect3_dropShadow_7612_9235"/>
<feBlend mode="normal" in="SourceGraphic" in2="effect3_dropShadow_7612_9235" result="shape"/>
<feColorMatrix in="SourceAlpha" type="matrix" values="0 0 0 0 0 0 0 0 0 0 0 0 0 0 0 0 0 0 127 0" result="hardAlpha"/>
<feOffset dy="1"/>
<feComposite in2="hardAlpha" operator="arithmetic" k2="-1" k3="1"/>
<feColorMatrix type="matrix" values="0 0 0 0 0.517647 0 0 0 0 0.14902 0 0 0 0 0.478431 0 0 0 1 0"/>
<feBlend mode="normal" in2="shape" result="effect4_innerShadow_7612_9235"/>
<feColorMatrix in="SourceAlpha" type="matrix" values="0 0 0 0 0 0 0 0 0 0 0 0 0 0 0 0 0 0 127 0" result="hardAlpha"/>
<feOffset dy="-4"/>
<feGaussianBlur stdDeviation="1"/>
<feComposite in2="hardAlpha" operator="arithmetic" k2="-1" k3="1"/>
<feColorMatrix type="matrix" values="0 0 0 0 0.517647 0 0 0 0 0.14902 0 0 0 0 0.478431 0 0 0 1 0"/>
<feBlend mode="normal" in2="effect4_innerShadow_7612_9235" result="effect5_innerShadow_7612_9235"/>
</filter>
<filter id="filter1_dddii_7612_9235" x="539.096" y="-184" width="543.412" height="709" filterUnits="userSpaceOnUse" color-interpolation-filters="sRGB">
<feFlood flood-opacity="0" result="BackgroundImageFix"/>
<feColorMatrix in="SourceAlpha" type="matrix" values="0 0 0 0 0 0 0 0 0 0 0 0 0 0 0 0 0 0 127 0" result="hardAlpha"/>
<feOffset dy="2"/>
<feGaussianBlur stdDeviation="25"/>
<feComposite in2="hardAlpha" operator="out"/>
<feColorMatrix type="matrix" values="0 0 0 0 0.517647 0 0 0 0 0.14902 0 0 0 0 0.478431 0 0 0 1 0"/>
<feBlend mode="normal" in2="BackgroundImageFix" result="effect1_dropShadow_7612_9235"/>
<feColorMatrix in="SourceAlpha" type="matrix" values="0 0 0 0 0 0 0 0 0 0 0 0 0 0 0 0 0 0 127 0" result="hardAlpha"/>
<feOffset/>
<feGaussianBlur stdDeviation="35"/>
<feComposite in2="hardAlpha" operator="out"/>
<feColorMatrix type="matrix" values="0 0 0 0 0.517647 0 0 0 0 0.14902 0 0 0 0 0.478431 0 0 0 0.2 0"/>
<feBlend mode="normal" in2="effect1_dropShadow_7612_9235" result="effect2_dropShadow_7612_9235"/>
<feColorMatrix in="SourceAlpha" type="matrix" values="0 0 0 0 0 0 0 0 0 0 0 0 0 0 0 0 0 0 127 0" result="hardAlpha"/>
<feOffset/>
<feGaussianBlur stdDeviation="20"/>
<feComposite in2="hardAlpha" operator="out"/>
<feColorMatrix type="matrix" values="0 0 0 0 0.517647 0 0 0 0 0.14902 0 0 0 0 0.478431 0 0 0 1 0"/>
<feBlend mode="normal" in2="effect2_dropShadow_7612_9235" result="effect3_dropShadow_7612_9235"/>
<feBlend mode="normal" in="SourceGraphic" in2="effect3_dropShadow_7612_9235" result="shape"/>
<feColorMatrix in="SourceAlpha" type="matrix" values="0 0 0 0 0 0 0 0 0 0 0 0 0 0 0 0 0 0 127 0" result="hardAlpha"/>
<feOffset dy="1"/>
<feComposite in2="hardAlpha" operator="arithmetic" k2="-1" k3="1"/>
<feColorMatrix type="matrix" values="0 0 0 0 0.517647 0 0 0 0 0.14902 0 0 0 0 0.478431 0 0 0 1 0"/>
<feBlend mode="normal" in2="shape" result="effect4_innerShadow_7612_9235"/>
<feColorMatrix in="SourceAlpha" type="matrix" values="0 0 0 0 0 0 0 0 0 0 0 0 0 0 0 0 0 0 127 0" result="hardAlpha"/>
<feOffset dy="-4"/>
<feGaussianBlur stdDeviation="1"/>
<feComposite in2="hardAlpha" operator="arithmetic" k2="-1" k3="1"/>
<feColorMatrix type="matrix" values="0 0 0 0 0.517647 0 0 0 0 0.14902 0 0 0 0 0.478431 0 0 0 1 0"/>
<feBlend mode="normal" in2="effect4_innerShadow_7612_9235" result="effect5_innerShadow_7612_9235"/>
</filter>
<filter id="filter2_dddii_7612_9235" x="268.307" y="-184" width="543.412" height="709" filterUnits="userSpaceOnUse" color-interpolation-filters="sRGB">
<feFlood flood-opacity="0" result="BackgroundImageFix"/>
<feColorMatrix in="SourceAlpha" type="matrix" values="0 0 0 0 0 0 0 0 0 0 0 0 0 0 0 0 0 0 127 0" result="hardAlpha"/>
<feOffset dy="2"/>
<feGaussianBlur stdDeviation="25"/>
<feComposite in2="hardAlpha" operator="out"/>
<feColorMatrix type="matrix" values="0 0 0 0 0.517647 0 0 0 0 0.14902 0 0 0 0 0.478431 0 0 0 1 0"/>
<feBlend mode="normal" in2="BackgroundImageFix" result="effect1_dropShadow_7612_9235"/>
<feColorMatrix in="SourceAlpha" type="matrix" values="0 0 0 0 0 0 0 0 0 0 0 0 0 0 0 0 0 0 127 0" result="hardAlpha"/>
<feOffset/>
<feGaussianBlur stdDeviation="35"/>
<feComposite in2="hardAlpha" operator="out"/>
<feColorMatrix type="matrix" values="0 0 0 0 0.517647 0 0 0 0 0.14902 0 0 0 0 0.478431 0 0 0 0.2 0"/>
<feBlend mode="normal" in2="effect1_dropShadow_7612_9235" result="effect2_dropShadow_7612_9235"/>
<feColorMatrix in="SourceAlpha" type="matrix" values="0 0 0 0 0 0 0 0 0 0 0 0 0 0 0 0 0 0 127 0" result="hardAlpha"/>
<feOffset/>
<feGaussianBlur stdDeviation="20"/>
<feComposite in2="hardAlpha" operator="out"/>
<feColorMatrix type="matrix" values="0 0 0 0 0.517647 0 0 0 0 0.14902 0 0 0 0 0.478431 0 0 0 1 0"/>
<feBlend mode="normal" in2="effect2_dropShadow_7612_9235" result="effect3_dropShadow_7612_9235"/>
<feBlend mode="normal" in="SourceGraphic" in2="effect3_dropShadow_7612_9235" result="shape"/>
<feColorMatrix in="SourceAlpha" type="matrix" values="0 0 0 0 0 0 0 0 0 0 0 0 0 0 0 0 0 0 127 0" result="hardAlpha"/>
<feOffset dy="1"/>
<feComposite in2="hardAlpha" operator="arithmetic" k2="-1" k3="1"/>
<feColorMatrix type="matrix" values="0 0 0 0 0.517647 0 0 0 0 0.14902 0 0 0 0 0.478431 0 0 0 1 0"/>
<feBlend mode="normal" in2="shape" result="effect4_innerShadow_7612_9235"/>
<feColorMatrix in="SourceAlpha" type="matrix" values="0 0 0 0 0 0 0 0 0 0 0 0 0 0 0 0 0 0 127 0" result="hardAlpha"/>
<feOffset dy="-4"/>
<feGaussianBlur stdDeviation="1"/>
<feComposite in2="hardAlpha" operator="arithmetic" k2="-1" k3="1"/>
<feColorMatrix type="matrix" values="0 0 0 0 0.517647 0 0 0 0 0.14902 0 0 0 0 0.478431 0 0 0 1 0"/>
<feBlend mode="normal" in2="effect4_innerShadow_7612_9235" result="effect5_innerShadow_7612_9235"/>
</filter>
<filter id="filter3_dddii_7612_9235" x="0.944824" y="-184" width="543.412" height="709" filterUnits="userSpaceOnUse" color-interpolation-filters="sRGB">
<feFlood flood-opacity="0" result="BackgroundImageFix"/>
<feColorMatrix in="SourceAlpha" type="matrix" values="0 0 0 0 0 0 0 0 0 0 0 0 0 0 0 0 0 0 127 0" result="hardAlpha"/>
<feOffset dy="2"/>
<feGaussianBlur stdDeviation="25"/>
<feComposite in2="hardAlpha" operator="out"/>
<feColorMatrix type="matrix" values="0 0 0 0 0.517647 0 0 0 0 0.14902 0 0 0 0 0.478431 0 0 0 1 0"/>
<feBlend mode="normal" in2="BackgroundImageFix" result="effect1_dropShadow_7612_9235"/>
<feColorMatrix in="SourceAlpha" type="matrix" values="0 0 0 0 0 0 0 0 0 0 0 0 0 0 0 0 0 0 127 0" result="hardAlpha"/>
<feOffset/>
<feGaussianBlur stdDeviation="35"/>
<feComposite in2="hardAlpha" operator="out"/>
<feColorMatrix type="matrix" values="0 0 0 0 0.517647 0 0 0 0 0.14902 0 0 0 0 0.478431 0 0 0 0.2 0"/>
<feBlend mode="normal" in2="effect1_dropShadow_7612_9235" result="effect2_dropShadow_7612_9235"/>
<feColorMatrix in="SourceAlpha" type="matrix" values="0 0 0 0 0 0 0 0 0 0 0 0 0 0 0 0 0 0 127 0" result="hardAlpha"/>
<feOffset/>
<feGaussianBlur stdDeviation="20"/>
<feComposite in2="hardAlpha" operator="out"/>
<feColorMatrix type="matrix" values="0 0 0 0 0.517647 0 0 0 0 0.14902 0 0 0 0 0.478431 0 0 0 1 0"/>
<feBlend mode="normal" in2="effect2_dropShadow_7612_9235" result="effect3_dropShadow_7612_9235"/>
<feBlend mode="normal" in="SourceGraphic" in2="effect3_dropShadow_7612_9235" result="shape"/>
<feColorMatrix in="SourceAlpha" type="matrix" values="0 0 0 0 0 0 0 0 0 0 0 0 0 0 0 0 0 0 127 0" result="hardAlpha"/>
<feOffset dy="1"/>
<feComposite in2="hardAlpha" operator="arithmetic" k2="-1" k3="1"/>
<feColorMatrix type="matrix" values="0 0 0 0 0.517647 0 0 0 0 0.14902 0 0 0 0 0.478431 0 0 0 1 0"/>
<feBlend mode="normal" in2="shape" result="effect4_innerShadow_7612_9235"/>
<feColorMatrix in="SourceAlpha" type="matrix" values="0 0 0 0 0 0 0 0 0 0 0 0 0 0 0 0 0 0 127 0" result="hardAlpha"/>
<feOffset dy="-4"/>
<feGaussianBlur stdDeviation="1"/>
<feComposite in2="hardAlpha" operator="arithmetic" k2="-1" k3="1"/>
<feColorMatrix type="matrix" values="0 0 0 0 0.517647 0 0 0 0 0.14902 0 0 0 0 0.478431 0 0 0 1 0"/>
<feBlend mode="normal" in2="effect4_innerShadow_7612_9235" result="effect5_innerShadow_7612_9235"/>
</filter>
<radialGradient id="paint0_radial_7612_9235" cx="0" cy="0" r="1" gradientUnits="userSpaceOnUse" gradientTransform="translate(319.068 170.5) rotate(90) scale(284.5 961.33)">
<stop stop-color="#8E2E80"/>
<stop offset="1" stop-color="#9A3588" stop-opacity="0"/>
</radialGradient>
<radialGradient id="paint1_radial_7612_9235" cx="0" cy="0" r="1" gradientUnits="userSpaceOnUse" gradientTransform="translate(51.7071 170.5) rotate(90) scale(284.5 961.33)">
<stop stop-color="#8E2E80"/>
<stop offset="1" stop-color="#9A3588" stop-opacity="0"/>
</radialGradient>
<radialGradient id="paint2_radial_7612_9235" cx="0" cy="0" r="1" gradientUnits="userSpaceOnUse" gradientTransform="translate(-219.082 170.5) rotate(90) scale(284.5 961.33)">
<stop stop-color="#8E2E80"/>
<stop offset="1" stop-color="#9A3588" stop-opacity="0"/>
</radialGradient>
<radialGradient id="paint3_radial_7612_9235" cx="0" cy="0" r="1" gradientUnits="userSpaceOnUse" gradientTransform="translate(-486.444 170.5) rotate(90) scale(284.5 961.33)">
<stop stop-color="#8E2E80"/>
<stop offset="1" stop-color="#9A3588" stop-opacity="0"/>
</radialGradient>
</defs>
</svg>
