<svg width="360" height="374" viewBox="0 0 360 374" fill="none" xmlns="http://www.w3.org/2000/svg">
<g opacity="0.6">
<g filter="url(#filter0_dddii_7875_10145)">
<path d="M411.126 70.5987C411.285 70.235 411.644 70 412.041 70H473.452C474.173 70 474.657 70.7406 474.368 71.4013L373.042 302.639C372.883 303.003 372.524 303.238 372.126 303.238H310.716C309.995 303.238 309.511 302.497 309.8 301.837L411.126 70.5987Z" fill="#6B1C60"/>
<path d="M411.126 70.5987C411.285 70.235 411.644 70 412.041 70H473.452C474.173 70 474.657 70.7406 474.368 71.4013L373.042 302.639C372.883 303.003 372.524 303.238 372.126 303.238H310.716C309.995 303.238 309.511 302.497 309.8 301.837L411.126 70.5987Z" fill="url(#paint0_radial_7875_10145)"/>
<path d="M411.583 70.7993C411.663 70.6175 411.843 70.5 412.041 70.5H473.452C473.813 70.5 474.055 70.8703 473.91 71.2007L372.584 302.439C372.505 302.62 372.325 302.738 372.126 302.738H310.716C310.355 302.738 310.113 302.368 310.258 302.037L309.8 301.837L310.258 302.037L411.583 70.7993Z" stroke="#330040"/>
</g>
<g opacity="0.8" filter="url(#filter1_dddii_7875_10145)">
<path d="M301.532 70.5987C301.692 70.235 302.051 70 302.448 70H363.858C364.58 70 365.064 70.7406 364.774 71.4013L263.449 302.639C263.29 303.003 262.93 303.238 262.533 303.238H201.123C200.401 303.238 199.917 302.497 200.207 301.837L301.532 70.5987Z" fill="#6B1C60"/>
<path d="M301.532 70.5987C301.692 70.235 302.051 70 302.448 70H363.858C364.58 70 365.064 70.7406 364.774 71.4013L263.449 302.639C263.29 303.003 262.93 303.238 262.533 303.238H201.123C200.401 303.238 199.917 302.497 200.207 301.837L301.532 70.5987Z" fill="url(#paint1_radial_7875_10145)"/>
<path d="M301.99 70.7993C302.07 70.6175 302.25 70.5 302.448 70.5H363.858C364.219 70.5 364.461 70.8703 364.316 71.2007L262.991 302.439C262.911 302.62 262.732 302.738 262.533 302.738H201.123C200.762 302.738 200.52 302.368 200.665 302.037L200.207 301.837L200.665 302.037L301.99 70.7993Z" stroke="#330040"/>
</g>
<g opacity="0.6" filter="url(#filter2_dddii_7875_10145)">
<path d="M190.533 70.5987C190.693 70.235 191.052 70 191.449 70H252.86C253.581 70 254.065 70.7406 253.776 71.4013L152.45 302.639C152.291 303.003 151.931 303.238 151.534 303.238H90.124C89.4026 303.238 88.9185 302.497 89.208 301.837L190.533 70.5987Z" fill="#6B1C60"/>
<path d="M190.533 70.5987C190.693 70.235 191.052 70 191.449 70H252.86C253.581 70 254.065 70.7406 253.776 71.4013L152.45 302.639C152.291 303.003 151.931 303.238 151.534 303.238H90.124C89.4026 303.238 88.9185 302.497 89.208 301.837L190.533 70.5987Z" fill="url(#paint2_radial_7875_10145)"/>
<path d="M190.991 70.7993C191.071 70.6175 191.251 70.5 191.449 70.5H252.86C253.22 70.5 253.462 70.8703 253.318 71.2007L151.992 302.439C151.913 302.62 151.733 302.738 151.534 302.738H90.124C89.7633 302.738 89.5212 302.368 89.666 302.037L89.208 301.837L89.666 302.037L190.991 70.7993Z" stroke="#330040"/>
</g>
<g opacity="0.4" filter="url(#filter3_dddii_7875_10145)">
<path d="M80.9394 70.5987C81.0987 70.235 81.4582 70 81.8553 70H143.266C143.987 70 144.471 70.7406 144.182 71.4013L42.8562 302.639C42.6969 303.003 42.3374 303.238 41.9403 303.238H-19.47C-20.1914 303.238 -20.6755 302.497 -20.3859 301.837L80.9394 70.5987Z" fill="#6B1C60"/>
<path d="M80.9394 70.5987C81.0987 70.235 81.4582 70 81.8553 70H143.266C143.987 70 144.471 70.7406 144.182 71.4013L42.8562 302.639C42.6969 303.003 42.3374 303.238 41.9403 303.238H-19.47C-20.1914 303.238 -20.6755 302.497 -20.3859 301.837L80.9394 70.5987Z" fill="url(#paint3_radial_7875_10145)"/>
<path d="M81.3973 70.7993C81.477 70.6175 81.6568 70.5 81.8553 70.5H143.266C143.626 70.5 143.868 70.8703 143.724 71.2007L42.3983 302.439C42.3186 302.62 42.1389 302.738 41.9403 302.738H-19.47C-19.8307 302.738 -20.0727 302.368 -19.928 302.037L-20.3859 301.837L-19.928 302.037L81.3973 70.7993Z" stroke="#330040"/>
</g>
</g>
<defs>
<filter id="filter0_dddii_7875_10145" x="239.715" y="0" width="304.738" height="373.238" filterUnits="userSpaceOnUse" color-interpolation-filters="sRGB">
<feFlood flood-opacity="0" result="BackgroundImageFix"/>
<feColorMatrix in="SourceAlpha" type="matrix" values="0 0 0 0 0 0 0 0 0 0 0 0 0 0 0 0 0 0 127 0" result="hardAlpha"/>
<feOffset dy="2"/>
<feGaussianBlur stdDeviation="25"/>
<feComposite in2="hardAlpha" operator="out"/>
<feColorMatrix type="matrix" values="0 0 0 0 0.517647 0 0 0 0 0.14902 0 0 0 0 0.478431 0 0 0 1 0"/>
<feBlend mode="normal" in2="BackgroundImageFix" result="effect1_dropShadow_7875_10145"/>
<feColorMatrix in="SourceAlpha" type="matrix" values="0 0 0 0 0 0 0 0 0 0 0 0 0 0 0 0 0 0 127 0" result="hardAlpha"/>
<feOffset/>
<feGaussianBlur stdDeviation="35"/>
<feComposite in2="hardAlpha" operator="out"/>
<feColorMatrix type="matrix" values="0 0 0 0 0.517647 0 0 0 0 0.14902 0 0 0 0 0.478431 0 0 0 0.2 0"/>
<feBlend mode="normal" in2="effect1_dropShadow_7875_10145" result="effect2_dropShadow_7875_10145"/>
<feColorMatrix in="SourceAlpha" type="matrix" values="0 0 0 0 0 0 0 0 0 0 0 0 0 0 0 0 0 0 127 0" result="hardAlpha"/>
<feOffset/>
<feGaussianBlur stdDeviation="20"/>
<feComposite in2="hardAlpha" operator="out"/>
<feColorMatrix type="matrix" values="0 0 0 0 0.517647 0 0 0 0 0.14902 0 0 0 0 0.478431 0 0 0 1 0"/>
<feBlend mode="normal" in2="effect2_dropShadow_7875_10145" result="effect3_dropShadow_7875_10145"/>
<feBlend mode="normal" in="SourceGraphic" in2="effect3_dropShadow_7875_10145" result="shape"/>
<feColorMatrix in="SourceAlpha" type="matrix" values="0 0 0 0 0 0 0 0 0 0 0 0 0 0 0 0 0 0 127 0" result="hardAlpha"/>
<feOffset dy="1"/>
<feComposite in2="hardAlpha" operator="arithmetic" k2="-1" k3="1"/>
<feColorMatrix type="matrix" values="0 0 0 0 0.517647 0 0 0 0 0.14902 0 0 0 0 0.478431 0 0 0 1 0"/>
<feBlend mode="normal" in2="shape" result="effect4_innerShadow_7875_10145"/>
<feColorMatrix in="SourceAlpha" type="matrix" values="0 0 0 0 0 0 0 0 0 0 0 0 0 0 0 0 0 0 127 0" result="hardAlpha"/>
<feOffset dy="-4"/>
<feGaussianBlur stdDeviation="1"/>
<feComposite in2="hardAlpha" operator="arithmetic" k2="-1" k3="1"/>
<feColorMatrix type="matrix" values="0 0 0 0 0.517647 0 0 0 0 0.14902 0 0 0 0 0.478431 0 0 0 1 0"/>
<feBlend mode="normal" in2="effect4_innerShadow_7875_10145" result="effect5_innerShadow_7875_10145"/>
</filter>
<filter id="filter1_dddii_7875_10145" x="130.122" y="0" width="304.738" height="373.238" filterUnits="userSpaceOnUse" color-interpolation-filters="sRGB">
<feFlood flood-opacity="0" result="BackgroundImageFix"/>
<feColorMatrix in="SourceAlpha" type="matrix" values="0 0 0 0 0 0 0 0 0 0 0 0 0 0 0 0 0 0 127 0" result="hardAlpha"/>
<feOffset dy="2"/>
<feGaussianBlur stdDeviation="25"/>
<feComposite in2="hardAlpha" operator="out"/>
<feColorMatrix type="matrix" values="0 0 0 0 0.517647 0 0 0 0 0.14902 0 0 0 0 0.478431 0 0 0 1 0"/>
<feBlend mode="normal" in2="BackgroundImageFix" result="effect1_dropShadow_7875_10145"/>
<feColorMatrix in="SourceAlpha" type="matrix" values="0 0 0 0 0 0 0 0 0 0 0 0 0 0 0 0 0 0 127 0" result="hardAlpha"/>
<feOffset/>
<feGaussianBlur stdDeviation="35"/>
<feComposite in2="hardAlpha" operator="out"/>
<feColorMatrix type="matrix" values="0 0 0 0 0.517647 0 0 0 0 0.14902 0 0 0 0 0.478431 0 0 0 0.2 0"/>
<feBlend mode="normal" in2="effect1_dropShadow_7875_10145" result="effect2_dropShadow_7875_10145"/>
<feColorMatrix in="SourceAlpha" type="matrix" values="0 0 0 0 0 0 0 0 0 0 0 0 0 0 0 0 0 0 127 0" result="hardAlpha"/>
<feOffset/>
<feGaussianBlur stdDeviation="20"/>
<feComposite in2="hardAlpha" operator="out"/>
<feColorMatrix type="matrix" values="0 0 0 0 0.517647 0 0 0 0 0.14902 0 0 0 0 0.478431 0 0 0 1 0"/>
<feBlend mode="normal" in2="effect2_dropShadow_7875_10145" result="effect3_dropShadow_7875_10145"/>
<feBlend mode="normal" in="SourceGraphic" in2="effect3_dropShadow_7875_10145" result="shape"/>
<feColorMatrix in="SourceAlpha" type="matrix" values="0 0 0 0 0 0 0 0 0 0 0 0 0 0 0 0 0 0 127 0" result="hardAlpha"/>
<feOffset dy="1"/>
<feComposite in2="hardAlpha" operator="arithmetic" k2="-1" k3="1"/>
<feColorMatrix type="matrix" values="0 0 0 0 0.517647 0 0 0 0 0.14902 0 0 0 0 0.478431 0 0 0 1 0"/>
<feBlend mode="normal" in2="shape" result="effect4_innerShadow_7875_10145"/>
<feColorMatrix in="SourceAlpha" type="matrix" values="0 0 0 0 0 0 0 0 0 0 0 0 0 0 0 0 0 0 127 0" result="hardAlpha"/>
<feOffset dy="-4"/>
<feGaussianBlur stdDeviation="1"/>
<feComposite in2="hardAlpha" operator="arithmetic" k2="-1" k3="1"/>
<feColorMatrix type="matrix" values="0 0 0 0 0.517647 0 0 0 0 0.14902 0 0 0 0 0.478431 0 0 0 1 0"/>
<feBlend mode="normal" in2="effect4_innerShadow_7875_10145" result="effect5_innerShadow_7875_10145"/>
</filter>
<filter id="filter2_dddii_7875_10145" x="19.1229" y="0" width="304.738" height="373.238" filterUnits="userSpaceOnUse" color-interpolation-filters="sRGB">
<feFlood flood-opacity="0" result="BackgroundImageFix"/>
<feColorMatrix in="SourceAlpha" type="matrix" values="0 0 0 0 0 0 0 0 0 0 0 0 0 0 0 0 0 0 127 0" result="hardAlpha"/>
<feOffset dy="2"/>
<feGaussianBlur stdDeviation="25"/>
<feComposite in2="hardAlpha" operator="out"/>
<feColorMatrix type="matrix" values="0 0 0 0 0.517647 0 0 0 0 0.14902 0 0 0 0 0.478431 0 0 0 1 0"/>
<feBlend mode="normal" in2="BackgroundImageFix" result="effect1_dropShadow_7875_10145"/>
<feColorMatrix in="SourceAlpha" type="matrix" values="0 0 0 0 0 0 0 0 0 0 0 0 0 0 0 0 0 0 127 0" result="hardAlpha"/>
<feOffset/>
<feGaussianBlur stdDeviation="35"/>
<feComposite in2="hardAlpha" operator="out"/>
<feColorMatrix type="matrix" values="0 0 0 0 0.517647 0 0 0 0 0.14902 0 0 0 0 0.478431 0 0 0 0.2 0"/>
<feBlend mode="normal" in2="effect1_dropShadow_7875_10145" result="effect2_dropShadow_7875_10145"/>
<feColorMatrix in="SourceAlpha" type="matrix" values="0 0 0 0 0 0 0 0 0 0 0 0 0 0 0 0 0 0 127 0" result="hardAlpha"/>
<feOffset/>
<feGaussianBlur stdDeviation="20"/>
<feComposite in2="hardAlpha" operator="out"/>
<feColorMatrix type="matrix" values="0 0 0 0 0.517647 0 0 0 0 0.14902 0 0 0 0 0.478431 0 0 0 1 0"/>
<feBlend mode="normal" in2="effect2_dropShadow_7875_10145" result="effect3_dropShadow_7875_10145"/>
<feBlend mode="normal" in="SourceGraphic" in2="effect3_dropShadow_7875_10145" result="shape"/>
<feColorMatrix in="SourceAlpha" type="matrix" values="0 0 0 0 0 0 0 0 0 0 0 0 0 0 0 0 0 0 127 0" result="hardAlpha"/>
<feOffset dy="1"/>
<feComposite in2="hardAlpha" operator="arithmetic" k2="-1" k3="1"/>
<feColorMatrix type="matrix" values="0 0 0 0 0.517647 0 0 0 0 0.14902 0 0 0 0 0.478431 0 0 0 1 0"/>
<feBlend mode="normal" in2="shape" result="effect4_innerShadow_7875_10145"/>
<feColorMatrix in="SourceAlpha" type="matrix" values="0 0 0 0 0 0 0 0 0 0 0 0 0 0 0 0 0 0 127 0" result="hardAlpha"/>
<feOffset dy="-4"/>
<feGaussianBlur stdDeviation="1"/>
<feComposite in2="hardAlpha" operator="arithmetic" k2="-1" k3="1"/>
<feColorMatrix type="matrix" values="0 0 0 0 0.517647 0 0 0 0 0.14902 0 0 0 0 0.478431 0 0 0 1 0"/>
<feBlend mode="normal" in2="effect4_innerShadow_7875_10145" result="effect5_innerShadow_7875_10145"/>
</filter>
<filter id="filter3_dddii_7875_10145" x="-90.4711" y="0" width="304.738" height="373.238" filterUnits="userSpaceOnUse" color-interpolation-filters="sRGB">
<feFlood flood-opacity="0" result="BackgroundImageFix"/>
<feColorMatrix in="SourceAlpha" type="matrix" values="0 0 0 0 0 0 0 0 0 0 0 0 0 0 0 0 0 0 127 0" result="hardAlpha"/>
<feOffset dy="2"/>
<feGaussianBlur stdDeviation="25"/>
<feComposite in2="hardAlpha" operator="out"/>
<feColorMatrix type="matrix" values="0 0 0 0 0.517647 0 0 0 0 0.14902 0 0 0 0 0.478431 0 0 0 1 0"/>
<feBlend mode="normal" in2="BackgroundImageFix" result="effect1_dropShadow_7875_10145"/>
<feColorMatrix in="SourceAlpha" type="matrix" values="0 0 0 0 0 0 0 0 0 0 0 0 0 0 0 0 0 0 127 0" result="hardAlpha"/>
<feOffset/>
<feGaussianBlur stdDeviation="35"/>
<feComposite in2="hardAlpha" operator="out"/>
<feColorMatrix type="matrix" values="0 0 0 0 0.517647 0 0 0 0 0.14902 0 0 0 0 0.478431 0 0 0 0.2 0"/>
<feBlend mode="normal" in2="effect1_dropShadow_7875_10145" result="effect2_dropShadow_7875_10145"/>
<feColorMatrix in="SourceAlpha" type="matrix" values="0 0 0 0 0 0 0 0 0 0 0 0 0 0 0 0 0 0 127 0" result="hardAlpha"/>
<feOffset/>
<feGaussianBlur stdDeviation="20"/>
<feComposite in2="hardAlpha" operator="out"/>
<feColorMatrix type="matrix" values="0 0 0 0 0.517647 0 0 0 0 0.14902 0 0 0 0 0.478431 0 0 0 1 0"/>
<feBlend mode="normal" in2="effect2_dropShadow_7875_10145" result="effect3_dropShadow_7875_10145"/>
<feBlend mode="normal" in="SourceGraphic" in2="effect3_dropShadow_7875_10145" result="shape"/>
<feColorMatrix in="SourceAlpha" type="matrix" values="0 0 0 0 0 0 0 0 0 0 0 0 0 0 0 0 0 0 127 0" result="hardAlpha"/>
<feOffset dy="1"/>
<feComposite in2="hardAlpha" operator="arithmetic" k2="-1" k3="1"/>
<feColorMatrix type="matrix" values="0 0 0 0 0.517647 0 0 0 0 0.14902 0 0 0 0 0.478431 0 0 0 1 0"/>
<feBlend mode="normal" in2="shape" result="effect4_innerShadow_7875_10145"/>
<feColorMatrix in="SourceAlpha" type="matrix" values="0 0 0 0 0 0 0 0 0 0 0 0 0 0 0 0 0 0 127 0" result="hardAlpha"/>
<feOffset dy="-4"/>
<feGaussianBlur stdDeviation="1"/>
<feComposite in2="hardAlpha" operator="arithmetic" k2="-1" k3="1"/>
<feColorMatrix type="matrix" values="0 0 0 0 0.517647 0 0 0 0 0.14902 0 0 0 0 0.478431 0 0 0 1 0"/>
<feBlend mode="normal" in2="effect4_innerShadow_7875_10145" result="effect5_innerShadow_7875_10145"/>
</filter>
<radialGradient id="paint0_radial_7875_10145" cx="0" cy="0" r="1" gradientUnits="userSpaceOnUse" gradientTransform="translate(80.9245 186.619) rotate(90) scale(116.619 394.057)">
<stop stop-color="#8E2E80"/>
<stop offset="1" stop-color="#9A3588" stop-opacity="0"/>
</radialGradient>
<radialGradient id="paint1_radial_7875_10145" cx="0" cy="0" r="1" gradientUnits="userSpaceOnUse" gradientTransform="translate(-28.6689 186.619) rotate(90) scale(116.619 394.057)">
<stop stop-color="#8E2E80"/>
<stop offset="1" stop-color="#9A3588" stop-opacity="0"/>
</radialGradient>
<radialGradient id="paint2_radial_7875_10145" cx="0" cy="0" r="1" gradientUnits="userSpaceOnUse" gradientTransform="translate(-139.668 186.619) rotate(90) scale(116.619 394.057)">
<stop stop-color="#8E2E80"/>
<stop offset="1" stop-color="#9A3588" stop-opacity="0"/>
</radialGradient>
<radialGradient id="paint3_radial_7875_10145" cx="0" cy="0" r="1" gradientUnits="userSpaceOnUse" gradientTransform="translate(-249.262 186.619) rotate(90) scale(116.619 394.057)">
<stop stop-color="#8E2E80"/>
<stop offset="1" stop-color="#9A3588" stop-opacity="0"/>
</radialGradient>
</defs>
</svg>
