<svg width="141" height="17" viewBox="0 0 141 17" fill="none" xmlns="http://www.w3.org/2000/svg">
<path d="M7.81633 0.291999C9.76699 0.291999 11.373 0.768666 12.6343 1.722C13.8957 2.67533 14.6803 3.966 14.9883 5.594H11.0063C10.7423 5.03667 10.339 4.59667 9.79633 4.274C9.25366 3.93667 8.601 3.768 7.83833 3.768C6.65033 3.768 5.69699 4.17133 4.97833 4.978C4.25966 5.77 3.90033 6.848 3.90033 8.212C3.90033 9.69333 4.27433 10.83 5.02233 11.622C5.785 12.414 6.863 12.81 8.25633 12.81C9.151 12.81 9.93566 12.568 10.6103 12.084C11.285 11.5853 11.7617 10.8813 12.0403 9.972H7.28833V7.266H15.1863V10.984C14.893 11.8933 14.4237 12.7367 13.7783 13.514C13.133 14.2913 12.3043 14.922 11.2923 15.406C10.295 15.89 9.151 16.132 7.86033 16.132C6.291 16.132 4.91966 15.802 3.74633 15.142C2.57299 14.4673 1.66366 13.5287 1.01833 12.326C0.387661 11.1233 0.0723282 9.752 0.0723282 8.212C0.0723282 6.672 0.387661 5.30067 1.01833 4.098C1.66366 2.89533 2.56566 1.964 3.72433 1.304C4.89766 0.629332 6.26166 0.291999 7.81633 0.291999ZM21.0541 3.438V6.694H26.3121V9.532H21.0541V12.986H26.9721V16H17.2921V0.446H26.9721V3.438H21.0541ZM40.2845 0.446V3.438H36.0605V16H32.2765V3.438H28.0965V0.446H40.2845ZM57.4506 11.622C57.4506 12.4433 57.2379 13.1987 56.8126 13.888C56.4019 14.5773 55.7859 15.1273 54.9646 15.538C54.1579 15.9487 53.1752 16.154 52.0166 16.154C50.2712 16.154 48.8339 15.7287 47.7046 14.878C46.5752 14.0273 45.9592 12.8393 45.8566 11.314H49.8606C49.9192 11.9007 50.1246 12.3627 50.4766 12.7C50.8432 13.0373 51.3052 13.206 51.8626 13.206C52.3466 13.206 52.7279 13.074 53.0066 12.81C53.2852 12.546 53.4246 12.194 53.4246 11.754C53.4246 11.358 53.2926 11.028 53.0286 10.764C52.7792 10.5 52.4639 10.2873 52.0826 10.126C51.7012 9.95 51.1732 9.74467 50.4986 9.51C49.5159 9.17267 48.7092 8.85 48.0786 8.542C47.4626 8.21933 46.9272 7.75 46.4726 7.134C46.0326 6.50333 45.8126 5.68933 45.8126 4.692C45.8126 3.768 46.0472 2.96867 46.5166 2.294C46.9859 1.61933 47.6312 1.106 48.4526 0.754C49.2886 0.387332 50.2419 0.203999 51.3126 0.203999C53.0432 0.203999 54.4146 0.614665 55.4266 1.436C56.4532 2.25733 57.0326 3.38667 57.1646 4.824H53.0946C53.0212 4.31067 52.8306 3.90733 52.5226 3.614C52.2292 3.306 51.8259 3.152 51.3126 3.152C50.8726 3.152 50.5132 3.26933 50.2346 3.504C49.9706 3.73867 49.8386 4.08333 49.8386 4.538C49.8386 4.90467 49.9559 5.22 50.1906 5.484C50.4399 5.73333 50.7479 5.93867 51.1146 6.1C51.4812 6.26133 52.0092 6.46667 52.6986 6.716C53.6959 7.05333 54.5099 7.39067 55.1406 7.728C55.7712 8.05067 56.3139 8.52733 56.7686 9.158C57.2232 9.78867 57.4506 10.61 57.4506 11.622ZM70.7064 0.446V3.438H66.4824V16H62.6984V3.438H58.5184V0.446H70.7064ZM81.9281 13.162H76.0981L75.1301 16H71.1701L76.8681 0.556H81.2021L86.9001 16H82.8961L81.9281 13.162ZM80.9601 10.302L79.0241 4.582L77.0661 10.302H80.9601ZM96.3485 16L92.9825 10.126H92.1245V16H88.3625V0.446H94.7865C96.0185 0.446 97.0598 0.658666 97.9105 1.084C98.7611 1.50933 99.3991 2.096 99.8245 2.844C100.25 3.57733 100.462 4.42067 100.462 5.374C100.462 6.50333 100.147 7.464 99.5165 8.256C98.9005 9.048 97.9985 9.59067 96.8105 9.884L100.506 16H96.3485ZM92.1245 7.552H94.4565C95.2045 7.552 95.7545 7.39067 96.1065 7.068C96.4585 6.73067 96.6345 6.23933 96.6345 5.594C96.6345 4.978 96.4511 4.494 96.0845 4.142C95.7325 3.79 95.1898 3.614 94.4565 3.614H92.1245V7.552ZM113.525 0.446V3.438H109.301V16H105.517V3.438H101.337V0.446H113.525ZM118.873 3.438V6.694H124.131V9.532H118.873V12.986H124.791V16H115.111V0.446H124.791V3.438H118.873ZM140.919 8.19C140.919 9.71533 140.589 11.072 139.929 12.26C139.284 13.4333 138.345 14.35 137.113 15.01C135.896 15.67 134.458 16 132.801 16H126.927V0.446H132.801C134.473 0.446 135.918 0.768666 137.135 1.414C138.352 2.05933 139.284 2.96867 139.929 4.142C140.589 5.31533 140.919 6.66467 140.919 8.19ZM132.471 12.634C133.938 12.634 135.074 12.2453 135.881 11.468C136.702 10.6907 137.113 9.598 137.113 8.19C137.113 6.782 136.702 5.68933 135.881 4.912C135.074 4.13467 133.938 3.746 132.471 3.746H130.689V12.634H132.471Z" fill="#79206B"/>
</svg>
