<svg width="158" height="57" viewBox="0 0 158 57" fill="none" xmlns="http://www.w3.org/2000/svg">
<path d="M31.6132 15.286C31.5651 15.3935 31.5358 15.5082 31.471 15.6978C31.6479 15.6078 31.7493 15.565 31.8408 15.5086C34.599 13.7968 37.7651 12.7211 41.0712 12.3725C46.5271 11.7779 51.4717 12.9473 55.7781 16.1132C59.514 18.8597 61.8847 22.4261 62.6017 26.7784C63.6378 33.0679 61.4173 38.3353 56.2136 42.5027C53.4201 44.7398 50.1113 46.0199 46.4562 46.5513C43.0216 47.0508 39.627 46.9028 36.3584 45.7839C29.8336 43.5504 25.8394 39.2303 24.1866 33.0433L31.6132 15.286ZM43.64 19.5674C43.3665 19.5803 43.0804 19.5878 42.7954 19.608C39.1366 19.8669 36.3903 21.4479 34.6842 24.4448C33.3655 26.7614 33.0665 29.2338 33.6186 31.7899C34.0238 33.6654 34.8713 35.3561 36.3539 36.7163C39.0661 39.2046 42.3758 39.857 46.0271 39.1428C48.6378 38.6321 50.5195 37.1402 51.7428 34.9998C53.7736 31.4465 53.826 27.809 51.9022 24.2195C50.2385 21.1153 47.4137 19.6051 43.64 19.5674Z" fill="white"/>
<path d="M64.2234 46.8857V24.6762C64.313 24.7372 64.3982 24.8035 64.4783 24.8747C66.9234 27.4492 69.3689 30.0234 71.8146 32.5974C71.9674 32.7603 72.0436 32.9723 72.0264 33.1869C72.0209 35.0115 72.0233 36.8363 72.0233 38.6609V39.1839C72.1813 39.1986 72.294 39.2182 72.4066 39.2183C73.9714 39.2187 75.5363 39.2289 77.1009 39.2109C78.2459 39.2105 79.3854 39.0645 80.4869 38.777C81.6266 38.4758 82.6404 37.8644 83.3948 37.0232C85.0349 35.2164 85.9842 33.133 86.3021 30.8076C86.5298 29.0987 86.389 27.3653 85.8878 25.7064C84.9515 22.5341 82.6697 20.6985 79.1836 20.0819C78.1728 19.9165 77.1472 19.8399 76.1207 19.8531C72.3853 19.8513 68.65 19.8511 64.9147 19.8523H64.2347V12.2272C64.363 12.2055 64.4927 12.1911 64.623 12.1841C69.0649 12.1914 73.5081 12.1436 77.9482 12.23C81.2276 12.2938 84.3838 12.963 87.2834 14.4462C90.8326 16.2617 93.1461 19.0138 94.4527 22.5144C95.1116 24.2797 95.452 26.1013 95.5795 27.9619C95.725 29.9227 95.6181 31.8925 95.2611 33.8302C94.8067 36.2315 93.8102 38.4153 92.1852 40.3576C91.3214 41.3902 90.4312 42.3929 89.3519 43.2444C87.0972 45.0233 84.4713 46.0573 81.5661 46.5334C80.0574 46.776 78.5287 46.8972 76.9971 46.8958C72.8748 46.9053 68.7526 46.9077 64.6302 46.903C64.5132 46.903 64.3962 46.8933 64.2234 46.8857Z" fill="white"/>
<path d="M97.144 19.8523V12.2335C97.2707 12.2088 97.3992 12.1924 97.5284 12.1845C101.987 12.1917 106.447 12.1604 110.904 12.2278C113.468 12.2632 116.002 12.7418 118.373 13.6385C122.826 15.3194 125.778 18.3013 127.352 22.458C128.025 24.2351 128.368 26.0727 128.499 27.9489C128.627 29.7243 128.554 31.5072 128.281 33.2687C127.873 35.8716 126.875 38.2507 125.112 40.3466C124.37 41.2288 123.624 42.1029 122.734 42.8648C120.397 44.8627 117.618 46.0184 114.5 46.5317C112.991 46.7752 111.462 46.8969 109.931 46.8955C105.825 46.9055 101.72 46.9078 97.6144 46.9026C97.4674 46.9026 97.3204 46.8881 97.1475 46.8789V24.6875C97.2444 24.7521 97.3362 24.8229 97.4222 24.8995C99.8564 27.4622 102.29 30.025 104.724 32.5879C104.88 32.7484 104.96 32.9592 104.947 33.1739C104.94 34.9986 104.943 36.8233 104.943 38.648C104.943 38.8158 104.943 38.9837 104.943 39.18C105.106 39.1955 105.234 39.2181 105.362 39.2181C106.927 39.2188 108.492 39.2294 110.057 39.2101C111.202 39.2089 112.341 39.0598 113.441 38.7674C114.547 38.471 115.532 37.8796 116.272 37.0681C117.936 35.2575 118.897 33.1621 119.22 30.8205C119.449 29.1118 119.31 27.3783 118.811 25.719C117.879 22.5455 115.602 20.7054 112.117 20.0839C111.09 19.9155 110.047 19.8381 109.004 19.8528C105.285 19.8517 101.567 19.8516 97.8483 19.8524L97.144 19.8523Z" fill="white"/>
<path d="M158 13.2626C157.846 13.4423 157.756 13.5531 157.659 13.658C155.579 15.9096 153.501 18.1623 151.424 20.416C151.334 20.5244 151.217 20.6109 151.083 20.6677C150.948 20.7246 150.801 20.7501 150.653 20.742C148.078 20.7306 145.504 20.7373 142.929 20.7348C142.373 20.7239 141.82 20.8132 141.301 20.9979C139.743 21.5786 138.902 23.3235 139.477 24.7758C139.636 25.1881 139.933 25.5433 140.326 25.7899C140.79 26.0947 141.281 26.3644 141.794 26.5963C142.661 26.9683 143.546 27.311 144.444 27.6162C145.976 28.1312 147.479 28.7173 148.946 29.3722C149.79 29.7524 150.599 30.1988 151.417 30.6258C151.572 30.7187 151.716 30.8268 151.845 30.9481C153.47 32.301 154.44 33.9637 154.673 35.9793C154.906 38.0004 154.684 39.9654 153.784 41.8362C152.418 44.6765 150.029 46.4493 146.843 47.361C145.412 47.7707 143.921 47.9763 142.421 47.9706C137.373 47.9605 132.325 47.9592 127.277 47.9668H126.552C126.622 47.8552 126.699 47.7471 126.781 47.643C128.881 45.3662 130.98 43.0891 133.079 40.8117C133.277 40.5958 133.492 40.5407 133.779 40.5415C136.337 40.5484 138.894 40.555 141.452 40.5371C141.955 40.5423 142.457 40.4797 142.94 40.351C144.602 39.8699 145.532 38.1431 145.004 36.6143C144.857 36.165 144.548 35.7751 144.128 35.5089C143.63 35.1961 143.121 34.8793 142.571 34.6601C141.261 34.1377 139.919 33.6834 138.599 33.1802C136.704 32.4575 134.808 31.732 133.082 30.6943C132.781 30.4976 132.501 30.2744 132.247 30.0279C130.659 28.597 129.859 26.8412 129.721 24.8149C129.613 23.2236 129.77 21.6611 130.362 20.1539C131.59 17.025 133.998 15.0239 137.399 13.987C139.051 13.4967 140.778 13.25 142.514 13.2561C147.545 13.2311 152.577 13.2461 157.608 13.246C157.705 13.246 157.802 13.254 158 13.2626Z" fill="white"/>
<path d="M39.7364 0H28.9105L19.8562 20.9042L36.6855 7.04676L39.7364 0Z" fill="#DD443C"/>
<path d="M36.6855 7.04676L19.8562 20.9042L19.3518 45.7335L36.6855 7.04676Z" fill="#A33F3A"/>
<path d="M20.0552 20.4297L19.3518 45.7335L14.9723 31.8087L20.0552 20.4297Z" fill="#992822"/>
<path d="M10.1369 22.2419L9.81703 44.325L10.3196 45.7699L15.2383 31.984L10.1369 22.2419Z" fill="#992822"/>
<path d="M15.0654 31.5952L10.3196 45.7699L19.3518 45.7335L15.0654 31.5952Z" fill="#DD443C"/>
<path d="M10.1369 22.2419H0L10.1369 45.1704V22.2419Z" fill="#DD443C"/>
<path d="M33.0516 52.4872H31.4326V51.6885H35.7248V52.4872H34.0889V56.9147H33.0516V52.4872Z" fill="white"/>
<path d="M37.4283 51.6885V53.7822H39.8316V51.6885H40.8688V56.9147H39.8315V54.6118H37.4283V56.9147H36.391V51.6885H37.4283Z" fill="white"/>
<path d="M45.2371 54.5963H43.0951V56.1316H45.4901V56.9147H42.0579V51.6885H45.3635V52.4716H43.0951V53.8209H45.2371V54.5963Z" fill="white"/>
<path d="M48.1296 55.8756C48.5497 56.092 49.0226 56.2067 49.5041 56.2091C50.1619 56.2091 50.5329 55.9222 50.5329 55.4957C50.5329 55.1003 50.2462 54.8678 49.5294 54.6272C48.585 54.3172 47.9862 53.8597 47.9862 53.1075C47.9862 52.2469 48.762 51.6032 50.0016 51.6032C50.4705 51.591 50.9358 51.6813 51.3592 51.8669L51.1147 52.6346C50.7622 52.4695 50.3719 52.3844 49.9763 52.3865C49.3185 52.3865 49.0403 52.7044 49.0403 53.0144C49.0403 53.4178 49.3691 53.6038 50.1281 53.8753C51.1147 54.2163 51.5869 54.6738 51.5869 55.426C51.5869 56.2712 50.8955 57 49.4366 57C48.8294 57 48.2054 56.845 47.8935 56.6666L48.1296 55.8756Z" fill="white"/>
<path d="M57.3214 54.7825C57.2876 54.1078 57.2455 53.2937 57.2539 52.5881H57.2286C57.0431 53.2238 56.807 53.9294 56.554 54.5885L55.7192 56.8528H54.9266L54.1676 54.6196C53.9483 53.9528 53.746 53.2394 53.5942 52.5881H53.5773C53.5521 53.2703 53.5182 54.1 53.4761 54.8134L53.3496 56.9147H52.3799L52.7593 51.6885H54.1253L54.8674 53.79C55.0698 54.4025 55.2469 55.0228 55.3903 55.6044H55.4155C55.5673 55.0382 55.7612 54.3947 55.9805 53.7822L56.7648 51.6885H58.114L58.4428 56.9147H57.431L57.3214 54.7825Z" fill="white"/>
<path d="M60.585 55.4337L60.096 56.9147H59.025L60.8464 51.6885H62.1703L64.0171 56.9147H62.8956L62.3812 55.4337H60.585ZM62.2125 54.7125L61.7656 53.4254C61.656 53.1075 61.5632 52.7509 61.4789 52.4485H61.462C61.3776 52.7509 61.285 53.1153 61.1922 53.4254L60.7536 54.7125H62.2125Z" fill="white"/>
<path d="M64.8098 51.766C65.3279 51.6849 65.8528 51.646 66.3784 51.6497C67.1963 51.6497 67.7445 51.7738 68.1324 52.0685C68.4444 52.3088 68.6215 52.6734 68.6215 53.1231C68.6204 53.4131 68.5195 53.6954 68.3331 53.9294C68.1468 54.1634 67.8846 54.3371 67.5842 54.4256V54.449C67.9975 54.5885 68.242 54.9529 68.3769 55.4569C68.5625 56.1084 68.7142 56.7131 68.8239 56.9147H67.7613C67.677 56.7596 67.5336 56.3331 67.3818 55.6818C67.2132 54.9994 66.9518 54.7824 66.3615 54.7669H65.8387V56.9147H64.8098V51.766ZM65.8387 54.0691H66.4542C67.1541 54.0691 67.5842 53.7278 67.5842 53.2084C67.5842 52.6422 67.1541 52.3709 66.4795 52.3709C66.2647 52.3651 66.0498 52.3807 65.8387 52.4175V54.0691Z" fill="white"/>
<path d="M70.738 52.4872H69.1189V51.6885H73.4111V52.4872H71.7752V56.9147H70.738V52.4872Z" fill="white"/>
<path d="M77.2565 54.5963H75.1145V56.1316H77.5095V56.9147H74.0773V51.6885H77.3829V52.4716H75.1145V53.8209H77.2565V54.5963Z" fill="white"/>
<path d="M78.4203 51.766C78.9384 51.6849 79.4633 51.646 79.9888 51.6497C80.8068 51.6497 81.3548 51.7738 81.7428 52.0685C82.0548 52.3088 82.2319 52.6734 82.2319 53.1231C82.2308 53.4131 82.1299 53.6954 81.9435 53.9294C81.7572 54.1634 81.495 54.3371 81.1946 54.4256V54.449C81.6079 54.5885 81.8523 54.9529 81.9872 55.4569C82.1728 56.1084 82.3246 56.7131 82.4342 56.9147H81.3717C81.2875 56.7596 81.144 56.3331 80.9922 55.6818C80.8236 54.9994 80.5622 54.7824 79.9719 54.7669H79.4491V56.9147H78.4203V51.766ZM79.4491 54.0691H80.0646C80.7647 54.0691 81.1946 53.7278 81.1946 53.2084C81.1946 52.6422 80.7647 52.3709 80.09 52.3709C79.8752 52.3651 79.6603 52.3807 79.4491 52.4175V54.0691Z" fill="white"/>
<path d="M85.5795 56.9147L84.1882 51.6885H85.293L85.8326 54.0613C85.9759 54.6971 86.1108 55.364 86.2035 55.8834H86.2205C86.3133 55.3329 86.4734 54.7125 86.6337 54.0535L87.2493 51.6885H88.3371L88.902 54.0922C89.0369 54.7125 89.1636 55.2941 89.2479 55.8603H89.2646C89.3659 55.2863 89.5008 54.6894 89.6527 54.0457L90.243 51.6885H91.297L89.7622 56.9147H88.6576L88.0673 54.4566C87.9239 53.8597 87.8226 53.3634 87.7468 52.7975H87.7299C87.6385 53.3562 87.5147 53.9101 87.359 54.4566L86.7011 56.9147H85.5795Z" fill="white"/>
<path d="M92.6633 55.4337L92.1742 56.9147H91.1033L92.9249 51.6885H94.2488L96.0955 56.9147H94.974L94.4595 55.4337H92.6633ZM94.2909 54.7125L93.844 53.4254C93.7344 53.1075 93.6417 52.7509 93.5572 52.4485H93.5404C93.4562 52.7509 93.3633 53.1153 93.2706 53.4254L92.8321 54.7125H94.2909Z" fill="white"/>
<path d="M97.4363 56.9147V54.7359L95.6401 51.6885H96.8292L97.5036 53.03C97.6976 53.4178 97.841 53.7123 98.0012 54.0691H98.0181C98.153 53.7356 98.3132 53.41 98.5072 53.03L99.1903 51.6885H100.362L98.4735 54.7125V56.9147L97.4363 56.9147Z" fill="white"/>
<path d="M103.491 52.4872H101.872V51.6885H106.164V52.4872H104.528V56.9147H103.491V52.4872Z" fill="white"/>
<path d="M111.637 54.2473C111.637 55.9997 110.482 57 108.922 57C107.311 57 106.299 55.8679 106.299 54.3404C106.299 52.7276 107.404 51.5956 109.006 51.5956C110.659 51.5956 111.637 52.7509 111.637 54.2473ZM107.396 54.3172C107.396 55.3872 107.977 56.2323 108.972 56.2323C109.976 56.2323 110.541 55.3716 110.541 54.2784C110.541 53.2937 110.01 52.3632 108.972 52.3632C107.944 52.3632 107.396 53.2394 107.396 54.3172Z" fill="white"/>
<path d="M114.277 51.766C114.778 51.686 115.286 51.6471 115.795 51.6497C116.553 51.6497 117.034 51.7428 117.414 51.9832C117.599 52.0838 117.751 52.2282 117.855 52.4014C117.959 52.5746 118.01 52.7702 118.004 52.9679C118.004 53.4487 117.675 53.8829 117.059 54.0922V54.1156C117.658 54.255 118.206 54.6893 118.206 55.4027C118.209 55.609 118.162 55.8133 118.068 56.0009C117.975 56.1885 117.838 56.3549 117.666 56.4882C117.262 56.8062 116.596 56.969 115.55 56.969C115.124 56.9703 114.699 56.947 114.277 56.8991V51.766ZM115.305 53.8287H115.837C116.562 53.8287 116.958 53.5185 116.958 53.0766C116.958 52.5803 116.553 52.3554 115.896 52.3554C115.698 52.3493 115.5 52.3622 115.305 52.3941V53.8287ZM115.305 56.2247C115.487 56.2464 115.67 56.2541 115.854 56.2479C116.52 56.2479 117.119 56.0231 117.119 55.3794C117.119 54.7669 116.536 54.5188 115.82 54.5188H115.305L115.305 56.2247Z" fill="white"/>
<path d="M122.313 54.5963H120.171V56.1316H122.566V56.9147H119.134V51.6885H122.439V52.4716H120.171V53.8209H122.313V54.5963Z" fill="white"/>
<path d="M124.649 52.4872H123.03V51.6885H127.322V52.4872H125.686V56.9147H124.649V52.4872Z" fill="white"/>
</svg>
