<svg width="703" height="215" viewBox="0 0 703 215" fill="none" xmlns="http://www.w3.org/2000/svg">
<g filter="url(#filter0_d_7612_9301)">
<path d="M50.9898 157H123.93C143.11 157 159.21 147.2 162.29 128.02C164.53 113.32 157.81 105.62 146.33 102.54C156.83 98.9 164.81 91.2 166.77 78.74C169.85 60.12 155.57 52 137.37 52H67.5098L50.9898 157ZM126.17 80C130.37 80 133.03 82.38 132.33 86.86C131.63 91.34 128.13 94 123.93 94H93.4098L95.6498 80H126.17ZM122.67 114.3C127.57 114.3 130.65 116.26 129.81 121.58C128.83 127.04 125.19 129 120.29 129H87.8098L90.1898 114.3H122.67ZM176.642 104.5C170.902 141.18 190.922 160.22 226.482 160.22C261.902 160.22 287.942 141.18 293.822 104.5C299.562 67.82 279.542 48.78 244.122 48.78C208.562 48.78 182.522 67.82 176.642 104.5ZM230.822 132.22C214.022 132.22 206.882 121.72 209.682 104.5C212.342 87.14 222.842 76.78 239.642 76.78C256.442 76.78 263.582 86.86 260.782 104.5C258.122 121.72 247.622 132.22 230.822 132.22ZM299.131 157H331.611L340.291 101.98L373.051 157H405.531L422.191 52H389.711L380.891 107.86L348.271 52H315.791L299.131 157ZM428.221 112.9C423.321 143.7 439.701 159.8 470.781 159.8C502.421 159.8 524.401 143.7 529.301 112.9L538.961 52H506.481L496.541 115.14C494.581 126.76 485.761 131.8 475.821 131.8C465.741 131.8 458.461 126.76 460.421 115.14L470.361 52H437.881L428.221 112.9ZM537.419 148.46C537.419 148.46 559.119 160.78 592.019 160.78C625.899 160.78 643.259 143.84 645.639 128.58C651.939 88.54 583.059 92.74 584.879 81.54C585.439 77.76 591.599 75.66 600.279 75.66C611.059 75.66 626.879 79.44 635.979 85.04L652.639 61.24C652.639 61.24 639.199 48.5 607.139 48.5C575.359 48.5 554.779 62.64 551.839 81.26C545.679 120.04 614.419 116.54 612.599 127.74C612.039 130.96 606.579 133.06 597.759 133.06C583.479 133.06 564.159 128.02 552.539 120.6L537.419 148.46Z" fill="url(#paint0_linear_7612_9301)"/>
</g>
<g filter="url(#filter1_d_7612_9301)">
<path d="M50.9898 155L49.0141 154.689L48.6505 157H50.9898V155ZM162.29 126.02L164.264 126.337L164.266 126.329L164.267 126.321L162.29 126.02ZM146.33 100.54L145.675 98.6503L139.52 100.784L145.812 102.472L146.33 100.54ZM166.77 76.74L164.797 76.4136L164.795 76.4214L164.794 76.4292L166.77 76.74ZM67.5098 50V48H65.7998L65.5341 49.6891L67.5098 50ZM132.33 84.86L130.354 84.5512L132.33 84.86ZM93.4098 92L91.4349 91.684L91.0643 94H93.4098V92ZM95.6498 78V76H93.9443L93.6749 77.684L95.6498 78ZM129.81 119.58L131.778 119.933L131.782 119.913L131.785 119.892L129.81 119.58ZM87.8098 127L85.8355 126.68L85.4599 129H87.8098V127ZM90.1898 112.3V110.3H88.4875L88.2155 111.98L90.1898 112.3ZM50.9898 157H123.93V153H50.9898V157ZM123.93 157C143.772 157 160.983 146.772 164.264 126.337L160.315 125.703C157.437 143.628 142.448 153 123.93 153V157ZM164.267 126.321C165.439 118.627 164.305 112.474 161.106 107.794C157.917 103.129 152.882 100.227 146.848 98.6083L145.812 102.472C151.258 103.933 155.322 106.421 157.804 110.051C160.275 113.666 161.38 118.713 160.313 125.719L164.267 126.321ZM146.985 102.43C158.069 98.5871 166.653 90.3521 168.745 77.0508L164.794 76.4292C162.966 88.0479 155.59 95.2129 145.675 98.6503L146.985 102.43ZM168.743 77.0664C170.387 67.1293 167.39 59.6866 161.297 54.8243C155.344 50.0731 146.706 48 137.37 48V52C146.234 52 153.836 53.9869 158.802 57.9507C163.63 61.8034 166.233 67.7306 164.797 76.4136L168.743 77.0664ZM137.37 48H67.5098V52H137.37V48ZM65.5341 49.6891L49.0141 154.689L52.9655 155.311L69.4855 50.3108L65.5341 49.6891ZM126.17 80C127.924 80 129.035 80.4963 129.641 81.1309C130.207 81.7241 130.634 82.7557 130.354 84.5512L134.306 85.1687C134.725 82.4843 134.173 80.0859 132.534 78.369C130.935 76.6937 128.615 76 126.17 76V80ZM130.354 84.5512C129.816 87.9926 127.212 90 123.93 90V94C129.048 94 133.444 90.6874 134.306 85.1687L130.354 84.5512ZM123.93 90H93.4098V94H123.93V90ZM95.3847 92.316L97.6246 78.316L93.6749 77.684L91.4349 91.684L95.3847 92.316ZM95.6498 80H126.17V76H95.6498V80ZM122.67 114.3C124.938 114.3 126.322 114.769 127.051 115.429C127.66 115.98 128.19 117.017 127.834 119.268L131.785 119.892C132.27 116.823 131.679 114.22 129.734 112.461C127.908 110.811 125.301 110.3 122.67 110.3V114.3ZM127.841 119.227C127.424 121.549 126.498 122.897 125.359 123.709C124.173 124.554 122.5 125 120.29 125V129C122.98 129 125.577 128.466 127.681 126.966C129.832 125.433 131.215 123.071 131.778 119.933L127.841 119.227ZM120.29 125H87.8098V129H120.29V125ZM89.7841 127.32L92.1641 112.62L88.2155 111.98L85.8355 126.68L89.7841 127.32ZM90.1898 114.3H122.67V110.3H90.1898V114.3ZM176.642 102.5L174.667 102.183L174.666 102.191L176.642 102.5ZM293.822 102.5L295.797 102.817L295.798 102.809L293.822 102.5ZM209.682 102.5L211.656 102.821L211.658 102.812L211.659 102.803L209.682 102.5ZM260.782 102.5L258.807 102.186L258.805 102.195L260.782 102.5ZM174.666 102.191C171.734 120.925 175.332 135.549 184.613 145.481C193.86 155.376 208.386 160.22 226.482 160.22V156.22C209.018 156.22 195.754 151.544 187.536 142.749C179.352 133.991 175.81 120.755 178.618 102.809L174.666 102.191ZM226.482 160.22C244.547 160.22 260.382 155.362 272.479 145.676C284.592 135.979 292.789 121.577 295.797 102.817L291.847 102.183C288.975 120.103 281.212 133.561 269.979 142.554C258.732 151.558 243.837 156.22 226.482 156.22V160.22ZM295.798 102.809C298.73 84.0752 295.131 69.4523 285.87 59.5209C276.641 49.6249 262.15 44.78 244.122 44.78V48.78C261.514 48.78 274.743 53.455 282.944 62.249C291.112 71.0077 294.654 84.2448 291.846 102.191L295.798 102.809ZM244.122 44.78C225.988 44.78 210.119 49.6376 198.003 59.3228C185.872 69.0203 177.675 83.4231 174.667 102.183L178.617 102.817C181.489 84.8969 189.252 71.4397 200.501 62.4472C211.765 53.4424 226.696 48.78 244.122 48.78V44.78ZM230.822 128.22C222.834 128.22 217.552 125.74 214.51 121.628C211.422 117.454 210.301 111.153 211.656 102.821L207.708 102.179C206.263 111.067 207.312 118.626 211.294 124.007C215.322 129.45 222.01 132.22 230.822 132.22V128.22ZM211.659 102.803C212.94 94.445 216.076 87.9668 220.73 83.5864C225.364 79.2252 231.674 76.78 239.642 76.78V72.78C230.81 72.78 223.47 75.5148 217.989 80.6736C212.528 85.8132 209.084 93.195 207.705 102.197L211.659 102.803ZM239.642 76.78C247.657 76.78 252.929 79.1712 255.961 83.2231C259.037 87.3354 260.165 93.6274 258.807 102.186L262.757 102.814C264.199 93.7326 263.157 86.1646 259.163 80.8269C255.125 75.4287 248.427 72.78 239.642 72.78V76.78ZM258.805 102.195C257.525 110.481 254.389 116.963 249.731 121.364C245.094 125.744 238.783 128.22 230.822 128.22V132.22C239.661 132.22 247 129.446 252.478 124.271C257.934 119.117 261.379 111.739 262.759 102.805L258.805 102.195ZM299.131 155L297.156 154.687L296.789 157H299.131V155ZM331.611 155V157H333.32L333.587 155.312L331.611 155ZM340.291 99.98L342.009 98.9568L339.178 94.2013L338.315 99.6683L340.291 99.98ZM373.051 155L371.333 156.023L371.914 157H373.051V155ZM405.531 155V157H407.239L407.506 155.313L405.531 155ZM422.191 50L424.166 50.3134L424.533 48H422.191V50ZM389.711 50V48H388.002L387.736 49.6881L389.711 50ZM380.891 105.86L379.164 106.869L381.992 111.711L382.867 106.172L380.891 105.86ZM348.271 50L349.998 48.9914L349.419 48H348.271V50ZM315.791 50V48H314.083L313.816 49.6866L315.791 50ZM299.131 157H331.611V153H299.131V157ZM333.587 155.312L342.267 100.292L338.315 99.6683L329.635 154.688L333.587 155.312ZM338.573 101.003L371.333 156.023L374.769 153.977L342.009 98.9568L338.573 101.003ZM373.051 157H405.531V153H373.051V157ZM407.506 155.313L424.166 50.3134L420.216 49.6866L403.556 154.687L407.506 155.313ZM422.191 48H389.711V52H422.191V48ZM387.736 49.6881L378.915 105.548L382.867 106.172L391.687 50.3119L387.736 49.6881ZM382.618 104.851L349.998 48.9914L346.544 51.0085L379.164 106.869L382.618 104.851ZM348.271 48H315.791V52H348.271V48ZM313.816 49.6866L297.156 154.687L301.106 155.313L317.766 50.3134L313.816 49.6866ZM428.221 110.9L430.196 111.214L430.196 111.213L428.221 110.9ZM529.301 110.9L531.276 111.214L531.276 111.213L529.301 110.9ZM538.961 50L540.936 50.3133L541.303 48H538.961V50ZM506.481 50V48H504.771L504.505 49.689L506.481 50ZM496.541 113.14L498.513 113.473L498.515 113.462L498.517 113.451L496.541 113.14ZM460.421 113.14L462.393 113.473L462.395 113.462L462.397 113.451L460.421 113.14ZM470.361 50L472.337 50.311L472.7 48H470.361V50ZM437.881 50V48H436.173L435.906 49.6867L437.881 50ZM426.246 110.586C423.735 126.366 426.622 138.794 434.548 147.266C442.438 155.7 454.942 159.8 470.781 159.8V155.8C455.54 155.8 444.314 151.85 437.469 144.534C430.66 137.256 427.806 126.234 430.196 111.214L426.246 110.586ZM470.781 159.8C486.933 159.8 500.806 155.689 511.301 147.475C521.816 139.245 528.758 127.039 531.276 111.214L527.326 110.586C524.943 125.561 518.445 136.805 508.836 144.325C499.206 151.861 486.269 155.8 470.781 155.8V159.8ZM531.276 111.213L540.936 50.3133L536.986 49.6867L527.326 110.587L531.276 111.213ZM538.961 48H506.481V52H538.961V48ZM504.505 49.689L494.565 112.829L498.517 113.451L508.457 50.311L504.505 49.689ZM494.569 112.807C493.668 118.145 491.231 121.834 487.989 124.216C484.714 126.622 480.467 127.8 475.821 127.8V131.8C481.115 131.8 486.248 130.458 490.357 127.439C494.501 124.396 497.453 119.755 498.513 113.473L494.569 112.807ZM475.821 127.8C471.059 127.8 467.309 126.603 464.988 124.382C462.753 122.243 461.492 118.812 462.393 113.473L458.449 112.807C457.389 119.088 458.789 123.987 462.223 127.273C465.572 130.477 470.503 131.8 475.821 131.8V127.8ZM462.397 113.451L472.337 50.311L468.385 49.689L458.445 112.829L462.397 113.451ZM470.361 48H437.881V52H470.361V48ZM435.906 49.6867L426.246 110.587L430.196 111.213L439.856 50.3133L435.906 49.6867ZM537.419 146.46L535.661 145.506L534.725 147.231L536.431 148.199L537.419 146.46ZM645.639 126.58L643.663 126.269L643.663 126.272L645.639 126.58ZM584.879 79.54L586.853 79.8608L586.855 79.847L586.857 79.8331L584.879 79.54ZM635.979 83.04L634.93 84.7433L636.536 85.7314L637.617 84.1869L635.979 83.04ZM652.639 59.24L654.277 60.3869L655.266 58.9745L654.015 57.7885L652.639 59.24ZM551.839 79.26L553.814 79.5738L553.814 79.5719L551.839 79.26ZM612.599 125.74L614.569 126.083L614.571 126.072L614.573 126.061L612.599 125.74ZM552.539 118.6L553.615 116.914L551.805 115.759L550.781 117.646L552.539 118.6ZM537.419 146.46C536.431 148.199 536.432 148.2 536.433 148.2C536.433 148.2 536.434 148.201 536.434 148.201C536.436 148.202 536.438 148.203 536.44 148.204C536.444 148.206 536.449 148.209 536.456 148.213C536.47 148.221 536.488 148.231 536.512 148.245C536.561 148.271 536.63 148.309 536.72 148.358C536.899 148.455 537.161 148.594 537.503 148.769C538.188 149.12 539.193 149.615 540.498 150.207C543.107 151.389 546.918 152.958 551.767 154.523C561.461 157.654 575.32 160.78 592.019 160.78V156.78C575.817 156.78 562.377 153.746 552.996 150.717C548.307 149.202 544.636 147.691 542.149 146.563C540.905 146 539.958 145.532 539.327 145.209C539.012 145.048 538.776 144.922 538.621 144.839C538.544 144.797 538.487 144.766 538.451 144.746C538.433 144.736 538.421 144.729 538.413 144.725C538.409 144.723 538.407 144.721 538.406 144.72C538.405 144.72 538.405 144.72 538.405 144.72C538.405 144.72 538.405 144.72 538.405 144.72C538.406 144.72 538.406 144.721 537.419 146.46ZM592.019 160.78C626.504 160.78 645.031 143.456 647.615 126.888L643.663 126.272C641.486 140.224 625.294 156.78 592.019 156.78V160.78ZM647.614 126.891C649.294 116.216 645.932 108.329 639.944 102.482C634.067 96.7439 625.747 93.0495 617.566 90.346C613.453 88.9868 609.317 87.8605 605.471 86.8534C601.6 85.8397 598.069 84.9581 595.058 84.0667C592.017 83.1662 589.722 82.3148 588.267 81.4272C586.758 80.507 586.83 80.0012 586.853 79.8608L582.905 79.2192C582.472 81.8788 584.298 83.6917 586.184 84.842C588.123 86.0248 590.861 86.9957 593.923 87.9021C597.015 88.8175 600.657 89.7275 604.458 90.723C608.285 91.7251 612.322 92.8257 616.311 94.144C624.335 96.7955 631.941 100.259 637.15 105.344C642.247 110.321 645.133 116.924 643.663 126.269L647.614 126.891ZM586.857 79.8331C586.972 79.0551 587.745 77.9772 590.228 77.0581C592.617 76.1737 596.067 75.66 600.279 75.66V71.66C595.811 71.66 591.84 72.1963 588.839 73.3069C585.932 74.3828 583.345 76.2449 582.9 79.2469L586.857 79.8331ZM600.279 75.66C605.465 75.66 611.945 76.5737 618.264 78.1878C624.593 79.8045 630.613 82.0864 634.93 84.7433L637.027 81.3367C632.244 78.3936 625.805 75.9855 619.254 74.3122C612.692 72.6363 605.873 71.66 600.279 71.66V75.66ZM637.617 84.1869L654.277 60.3869L651 58.0931L634.34 81.8931L637.617 84.1869ZM652.639 59.24C654.015 57.7885 654.014 57.7876 654.013 57.7867C654.012 57.7864 654.011 57.7854 654.011 57.7847C654.009 57.7833 654.007 57.7816 654.005 57.7798C654.001 57.7761 653.997 57.7716 653.991 57.7664C653.98 57.756 653.965 57.7426 653.948 57.7263C653.912 57.6936 653.862 57.6493 653.8 57.5941C653.674 57.4836 653.493 57.3296 653.257 57.1384C652.785 56.7559 652.089 56.2243 651.16 55.5942C649.302 54.3336 646.51 52.6793 642.705 51.0342C635.087 47.741 623.442 44.5 607.139 44.5V48.5C622.895 48.5 634 51.629 641.118 54.7058C644.68 56.2456 647.252 57.7764 648.915 58.9046C649.747 59.4688 650.352 59.9326 650.74 60.2468C650.934 60.4039 651.074 60.5236 651.16 60.5998C651.204 60.6379 651.234 60.6651 651.251 60.6806C651.259 60.6884 651.265 60.6932 651.267 60.6951C651.268 60.696 651.268 60.6962 651.267 60.6956C651.267 60.6953 651.266 60.6948 651.266 60.6941C651.265 60.6938 651.264 60.6931 651.264 60.693C651.264 60.6923 651.263 60.6915 652.639 59.24ZM607.139 44.5C574.959 44.5 553.033 58.8739 549.863 78.9481L553.814 79.5719C556.525 62.4061 575.758 48.5 607.139 48.5V44.5ZM549.863 78.9462C548.214 89.3325 551.616 97.0309 557.608 102.754C563.488 108.37 571.795 112.03 579.961 114.741C584.067 116.103 588.195 117.244 592.033 118.269C595.895 119.301 599.422 120.206 602.425 121.119C605.459 122.042 607.75 122.914 609.202 123.817C610.71 124.753 610.649 125.269 610.625 125.419L614.573 126.061C615.003 123.411 613.193 121.587 611.313 120.419C609.379 119.217 606.647 118.223 603.588 117.292C600.499 116.353 596.865 115.42 593.066 114.405C589.242 113.383 585.209 112.268 581.221 110.944C573.2 108.282 565.591 104.846 560.371 99.8615C555.264 94.9841 552.384 88.5775 553.814 79.5738L549.863 78.9462ZM610.628 125.397C610.538 125.917 609.93 126.874 607.59 127.729C605.354 128.546 602.041 129.06 597.759 129.06V133.06C602.296 133.06 606.124 132.524 608.963 131.486C611.697 130.486 614.099 128.783 614.569 126.083L610.628 125.397ZM597.759 129.06C583.805 129.06 564.87 124.101 553.615 116.914L551.462 120.286C563.448 127.939 583.153 133.06 597.759 133.06V129.06ZM550.781 117.646L535.661 145.506L539.177 147.414L554.297 119.554L550.781 117.646Z" fill="url(#paint1_linear_7612_9301)"/>
</g>
<defs>
<filter id="filter0_d_7612_9301" x="0.989746" y="2.5" width="701.649" height="212.281" filterUnits="userSpaceOnUse" color-interpolation-filters="sRGB">
<feFlood flood-opacity="0" result="BackgroundImageFix"/>
<feColorMatrix in="SourceAlpha" type="matrix" values="0 0 0 0 0 0 0 0 0 0 0 0 0 0 0 0 0 0 127 0" result="hardAlpha"/>
<feOffset dy="4"/>
<feGaussianBlur stdDeviation="25"/>
<feComposite in2="hardAlpha" operator="out"/>
<feColorMatrix type="matrix" values="0 0 0 0 0.309804 0 0 0 0 0.0784314 0 0 0 0 0.282353 0 0 0 0.5 0"/>
<feBlend mode="normal" in2="BackgroundImageFix" result="effect1_dropShadow_7612_9301"/>
<feBlend mode="normal" in="SourceGraphic" in2="effect1_dropShadow_7612_9301" result="shape"/>
</filter>
<filter id="filter1_d_7612_9301" x="0.989746" y="0.5" width="701.649" height="212.281" filterUnits="userSpaceOnUse" color-interpolation-filters="sRGB">
<feFlood flood-opacity="0" result="BackgroundImageFix"/>
<feColorMatrix in="SourceAlpha" type="matrix" values="0 0 0 0 0 0 0 0 0 0 0 0 0 0 0 0 0 0 127 0" result="hardAlpha"/>
<feOffset dy="4"/>
<feGaussianBlur stdDeviation="25"/>
<feComposite in2="hardAlpha" operator="out"/>
<feColorMatrix type="matrix" values="0 0 0 0 0.309804 0 0 0 0 0.0784314 0 0 0 0 0.282353 0 0 0 0.5 0"/>
<feBlend mode="normal" in2="BackgroundImageFix" result="effect1_dropShadow_7612_9301"/>
<feBlend mode="normal" in="SourceGraphic" in2="effect1_dropShadow_7612_9301" result="shape"/>
</filter>
<linearGradient id="paint0_linear_7612_9301" x1="110.955" y1="41" x2="116.893" y2="225.908" gradientUnits="userSpaceOnUse">
<stop stop-color="#AF7E2C"/>
<stop offset="0.192102" stop-color="#F2E171"/>
<stop offset="0.457821" stop-color="#B38430"/>
<stop offset="0.886805" stop-color="#F2E171"/>
<stop offset="1" stop-color="#E0BD77"/>
</linearGradient>
<linearGradient id="paint1_linear_7612_9301" x1="345.5" y1="39" x2="345.5" y2="187" gradientUnits="userSpaceOnUse">
<stop stop-color="#FFFE92"/>
<stop offset="1" stop-color="#C79554"/>
</linearGradient>
</defs>
</svg>
